<svg width="835" height="660" viewBox="0 0 835 660" fill="none" xmlns="http://www.w3.org/2000/svg">
<path fill-rule="evenodd" clip-rule="evenodd" d="M3.3035 80.9611C15.3685 39.1646 48.1163 9.57669 90.6309 1.8206C100.254 0.0970802 143.2 -0.1902 371.285 0.0970278C726.741 0.240694 740.674 0.384308 748.861 2.96967C793.673 16.4709 823.405 47.7825 832.023 90.2971C835.326 106.671 835.47 390.341 832.166 404.561C821.681 449.23 790.801 481.691 746.706 494.043C736.221 496.915 732.199 497.059 519.943 497.921C404.895 498.639 403.458 498.783 395.272 501.799C390.341 503.67 386.461 505.13 382.749 506.936C368.513 513.866 356.761 525.897 297.746 585.823C259.684 624.459 226.649 657.064 224.495 658.213C215.159 662.952 204.674 657.925 201.801 647.153C200.939 644.137 196.343 621.3 191.747 596.739C179.251 531.53 177.527 523.631 173.793 517.167C169.341 509.555 160.435 501.512 154.259 499.644C151.53 498.783 137.455 497.777 122.804 497.49C94.2217 496.628 83.1621 494.617 65.2083 487.149C34.9022 474.365 12.065 446.932 2.72898 412.461C0.143631 402.837 0 394.794 0 247.285V92.1643L3.3035 80.9611ZM493.496 253.557L588.168 214.547L538.858 127.306L455.187 196.778L470.582 89.375H368.168L387.462 196.778L303.685 127.306L254.375 214.547L349.152 253.557L254.375 294.203L303.685 377.651L387.462 309.653L371.961 417.739H470.582L455.187 309.653L538.858 377.651L588.168 294.203L493.496 253.557Z" fill="#35E214"/>
</svg>
