<svg width="3238" height="3012" viewBox="0 0 3238 3012" fill="none" xmlns="http://www.w3.org/2000/svg">
<path fill-rule="evenodd" clip-rule="evenodd" d="M0.0629757 163.285L67.0945 135.665L-0.000225536 106.859L44.3092 31.874L103.222 79.7515L92.3756 3.59968H180.824L169.903 79.7517L228.887 31.8773L273.195 106.861L206.031 135.665L273.132 163.283L228.948 241.456L170.518 193.003L183.978 267.931H92.3701L103.178 192.53L44.2482 241.459L0.0629757 163.285ZM110.393 179.636L98.4978 262.619H177.627L162.72 179.636L227.449 233.312L265.548 165.906L192.319 135.765L265.548 104.361L227.449 39.8857L162.72 92.4237L174.696 8.91158H98.4978L110.393 92.4237L45.7451 39.8857L7.64589 104.361L80.7934 135.765L7.64589 165.906L45.7451 233.312L110.393 179.636Z" fill="#35E214"/>
<path fill-rule="evenodd" clip-rule="evenodd" d="M106.98 302.843L134.6 369.875L163.406 302.78L238.391 347.09L190.514 406.002L266.665 395.156V483.604L190.513 472.684L238.388 531.667L163.404 575.976L134.6 508.811L106.982 575.912L28.8094 531.728L77.2621 473.298L2.33398 486.758L2.33398 395.15L77.7351 405.958L28.8059 347.028L106.98 302.843ZM90.6294 413.173L7.64589 401.278L7.64589 480.407L90.6294 465.5L36.9529 530.229L104.359 568.328L134.5 495.099L165.904 568.328L230.379 530.229L177.841 465.5L261.354 477.476V401.278L177.841 413.173L230.379 348.525L165.904 310.426L134.5 383.574L104.359 310.426L36.9529 348.525L90.6294 413.173Z" fill="#35E214"/>
<path fill-rule="evenodd" clip-rule="evenodd" d="M273.132 715.47L206.101 743.09L273.196 771.896L228.886 846.881L169.973 799.003L180.82 875.155H92.3712L103.292 799.003L44.3088 846.878L0 771.894L67.1644 743.09L0.0632893 715.472L44.2477 637.299L102.677 685.752L89.2174 610.824H180.825L170.017 686.225L228.947 637.296L273.132 715.47ZM162.803 699.119L174.698 616.136H95.5685L110.475 699.119L45.7465 645.443L7.64737 712.849L80.8763 742.989L7.64737 774.394L45.7465 838.869L110.475 786.331L98.4992 869.843H174.698L162.803 786.331L227.45 838.869L265.549 774.394L192.402 742.989L265.549 712.849L227.45 645.443L162.803 699.119Z" fill="#35E214"/>
<path fill-rule="evenodd" clip-rule="evenodd" d="M273.132 1016.98L206.101 1044.6L273.196 1073.41L228.886 1148.4L169.973 1100.52L180.82 1176.67H92.3712L103.292 1100.52L44.3088 1148.39L0 1073.41L67.1644 1044.6L0.0632893 1016.99L44.2477 938.813L102.677 987.266L89.2174 912.338H180.825L170.017 987.739L228.947 938.81L273.132 1016.98ZM162.803 1000.63L174.698 917.65H95.5685L110.475 1000.63L45.7465 946.957L7.64737 1014.36L80.8763 1044.5L7.64737 1075.91L45.7465 1140.38L110.475 1087.85L98.4992 1171.36H174.698L162.803 1087.85L227.45 1140.38L265.549 1075.91L192.402 1044.5L265.549 1014.36L227.45 946.957L162.803 1000.63Z" fill="#35E214"/>
<path fill-rule="evenodd" clip-rule="evenodd" d="M273.132 1318.5L206.101 1346.12L273.196 1374.92L228.886 1449.91L169.973 1402.03L180.82 1478.18H92.3712L103.292 1402.03L44.3088 1449.91L0 1374.92L67.1644 1346.12L0.0632893 1318.5L44.2477 1240.33L102.677 1288.78L89.2174 1213.85H180.825L170.017 1289.25L228.947 1240.32L273.132 1318.5ZM162.803 1302.15L174.698 1219.16H95.5685L110.475 1302.15L45.7465 1248.47L7.64737 1315.88L80.8763 1346.02L7.64737 1377.42L45.7465 1441.9L110.475 1389.36L98.4992 1472.87H174.698L162.803 1389.36L227.45 1441.9L265.549 1377.42L192.402 1346.02L265.549 1315.88L227.45 1248.47L162.803 1302.15Z" fill="#35E214"/>
<path fill-rule="evenodd" clip-rule="evenodd" d="M0.0629757 1675.06L67.0945 1647.43L-0.000225536 1618.63L44.3092 1543.64L103.222 1591.52L92.3756 1515.37H180.824L169.903 1591.52L228.887 1543.65L273.195 1618.63L206.031 1647.43L273.132 1675.05L228.948 1753.23L170.518 1704.77L183.978 1779.7H92.3701L103.178 1704.3L44.2482 1753.23L0.0629757 1675.06ZM110.393 1691.41L98.4978 1774.39H177.627L162.72 1691.41L227.449 1745.08L265.548 1677.68L192.319 1647.54L265.548 1616.13L227.449 1551.66L162.72 1604.19L174.696 1520.68H98.4978L110.393 1604.19L45.7451 1551.66L7.64589 1616.13L80.7934 1647.54L7.64589 1677.68L45.7451 1745.08L110.393 1691.41Z" fill="#35E214"/>
<path fill-rule="evenodd" clip-rule="evenodd" d="M0.0629757 1976.57L67.0945 1948.95L-0.000225536 1920.14L44.3092 1845.16L103.222 1893.04L92.3756 1816.88H180.824L169.903 1893.04L228.887 1845.16L273.195 1920.15L206.031 1948.95L273.132 1976.57L228.948 2054.74L170.518 2006.29L183.978 2081.22H92.3701L103.178 2005.81L44.2482 2054.74L0.0629757 1976.57ZM110.393 1992.92L98.4978 2075.9H177.627L162.72 1992.92L227.449 2046.6L265.548 1979.19L192.319 1949.05L265.548 1917.65L227.449 1853.17L162.72 1905.71L174.696 1822.2H98.4978L110.393 1905.71L45.7451 1853.17L7.64589 1917.65L80.7934 1949.05L7.64589 1979.19L45.7451 2046.6L110.393 1992.92Z" fill="#35E214"/>
<path fill-rule="evenodd" clip-rule="evenodd" d="M163.284 2389.2L135.663 2322.17L106.858 2389.26L31.8725 2344.95L79.7501 2286.04L3.59821 2296.88V2208.44L79.7502 2219.36L31.8758 2160.37L106.86 2116.06L135.663 2183.23L163.282 2116.13L241.454 2160.31L193.002 2218.74L267.93 2205.28V2296.89L192.529 2286.08L241.458 2345.01L163.284 2389.2ZM179.634 2278.87L262.618 2290.76V2211.63L179.634 2226.54L233.311 2161.81L165.905 2123.71L135.764 2196.94L104.36 2123.71L39.8842 2161.81L92.4222 2226.54L8.91011 2214.56V2290.76L92.4222 2278.87L39.8842 2343.51L104.36 2381.61L135.764 2308.47L165.905 2381.61L233.311 2343.51L179.634 2278.87Z" fill="#35E214"/>
<path fill-rule="evenodd" clip-rule="evenodd" d="M273.132 2528.75L206.101 2556.37L273.196 2585.18L228.886 2660.17L169.973 2612.29L180.82 2688.44H92.3712L103.292 2612.29L44.3088 2660.16L0 2585.18L67.1644 2556.37L0.0632893 2528.76L44.2477 2450.58L102.677 2499.04L89.2174 2424.11H180.825L170.017 2499.51L228.947 2450.58L273.132 2528.75ZM162.803 2512.4L174.698 2429.42H95.5685L110.475 2512.4L45.7465 2458.73L7.64737 2526.13L80.8763 2556.27L7.64737 2587.68L45.7465 2652.15L110.475 2599.62L98.4992 2683.13H174.698L162.803 2599.62L227.45 2652.15L265.549 2587.68L192.402 2556.27L265.549 2526.13L227.45 2458.73L162.803 2512.4Z" fill="#35E214"/>
<path fill-rule="evenodd" clip-rule="evenodd" d="M106.98 2723.35L134.6 2790.39L163.406 2723.29L238.391 2767.6L190.514 2826.51L266.665 2815.67V2904.12L190.513 2893.2L238.388 2952.18L163.404 2996.49L134.6 2929.32L106.982 2996.42L28.8094 2952.24L77.2621 2893.81L2.33398 2907.27L2.33398 2815.66L77.7351 2826.47L28.8059 2767.54L106.98 2723.35ZM90.6294 2833.68L7.64589 2821.79L7.64589 2900.92L90.6294 2886.01L36.9529 2950.74L104.359 2988.84L134.5 2915.61L165.904 2988.84L230.379 2950.74L177.841 2886.01L261.354 2897.99V2821.79L177.841 2833.68L230.379 2769.04L165.904 2730.94L134.5 2804.09L104.359 2730.94L36.9529 2769.04L90.6294 2833.68Z" fill="#35E214"/>
<path fill-rule="evenodd" clip-rule="evenodd" d="M329.401 163.285L396.432 135.665L329.338 106.859L373.647 31.874L432.56 79.7515L421.714 3.59968H510.162L499.241 79.7517L558.224 31.8773L602.533 106.861L535.369 135.665L602.47 163.283L558.285 241.456L499.856 193.003L513.316 267.931H421.708L432.516 192.53L373.586 241.459L329.401 163.285ZM439.73 179.636L427.836 262.619H506.965L492.058 179.636L556.787 233.312L594.886 165.906L521.657 135.765L594.886 104.361L556.787 39.8857L492.058 92.4237L504.034 8.91158H427.836L439.73 92.4237L375.083 39.8857L336.984 104.361L410.131 135.765L336.984 165.906L375.083 233.312L439.73 179.636Z" fill="#35E214"/>
<path fill-rule="evenodd" clip-rule="evenodd" d="M329.401 464.801L396.432 437.18L329.338 408.374L373.647 333.389L432.56 381.267L421.714 305.115H510.162L499.241 381.267L558.224 333.392L602.533 408.377L535.369 437.18L602.47 464.798L558.285 542.971L499.856 494.518L513.316 569.446H421.708L432.516 494.045L373.586 542.974L329.401 464.801ZM439.73 481.151L427.836 564.134H506.965L492.058 481.151L556.787 534.827L594.886 467.421L521.657 437.281L594.886 405.876L556.787 341.401L492.058 393.939L504.034 310.427H427.836L439.73 393.939L375.083 341.401L336.984 405.876L410.131 437.281L336.984 467.421L375.083 534.827L439.73 481.151Z" fill="#35E214"/>
<path fill-rule="evenodd" clip-rule="evenodd" d="M329.401 766.316L396.432 738.695L329.338 709.89L373.647 634.904L432.56 682.782L421.714 606.63H510.162L499.241 682.782L558.224 634.908L602.533 709.892L535.369 738.695L602.47 766.314L558.285 844.486L499.856 796.033L513.316 870.961H421.708L432.516 795.56L373.586 844.49L329.401 766.316ZM439.73 782.666L427.836 865.65H506.965L492.058 782.666L556.787 836.342L594.886 768.936L521.657 738.796L594.886 707.391L556.787 642.916L492.058 695.454L504.034 611.942H427.836L439.73 695.454L375.083 642.916L336.984 707.391L410.131 738.796L336.984 768.936L375.083 836.342L439.73 782.666Z" fill="#35E214"/>
<path fill-rule="evenodd" clip-rule="evenodd" d="M329.401 1067.83L396.432 1040.21L329.338 1011.4L373.647 936.418L432.56 984.296L421.714 908.144H510.162L499.241 984.296L558.224 936.422L602.533 1011.41L535.369 1040.21L602.47 1067.83L558.285 1146L499.856 1097.55L513.316 1172.48H421.708L432.516 1097.07L373.586 1146L329.401 1067.83ZM439.73 1084.18L427.836 1167.16H506.965L492.058 1084.18L556.787 1137.86L594.886 1070.45L521.657 1040.31L594.886 1008.91L556.787 944.43L492.058 996.968L504.034 913.456H427.836L439.73 996.968L375.083 944.43L336.984 1008.91L410.131 1040.31L336.984 1070.45L375.083 1137.86L439.73 1084.18Z" fill="#35E214"/>
<path fill-rule="evenodd" clip-rule="evenodd" d="M433.938 1207.39L461.558 1274.42L490.364 1207.33L565.349 1251.64L517.472 1310.55L593.623 1299.7V1388.15L517.471 1377.23L565.346 1436.21L490.362 1480.52L461.558 1413.36L433.94 1480.46L355.767 1436.27L404.22 1377.84L329.292 1391.3V1299.7L404.693 1310.5L355.764 1251.57L433.938 1207.39ZM417.587 1317.72L334.604 1305.82V1384.95L417.587 1370.05L363.911 1434.78L431.317 1472.87L461.458 1399.65L492.862 1472.87L557.337 1434.78L504.799 1370.05L588.312 1382.02V1305.82L504.799 1317.72L557.337 1253.07L492.862 1214.97L461.458 1288.12L431.317 1214.97L363.911 1253.07L417.587 1317.72Z" fill="#35E214"/>
<path fill-rule="evenodd" clip-rule="evenodd" d="M490.241 1786.17L462.62 1719.13L433.815 1786.23L358.83 1741.92L406.707 1683.01L330.555 1693.85V1605.4L406.707 1616.33L358.833 1557.34L433.817 1513.03L462.62 1580.2L490.239 1513.1L568.411 1557.28L519.959 1615.71L594.887 1602.25V1693.86L519.486 1683.05L568.415 1741.98L490.241 1786.17ZM506.591 1675.84L589.575 1687.73V1608.6L506.591 1623.51L560.268 1558.78L492.862 1520.68L462.721 1593.91L431.317 1520.68L366.841 1558.78L419.379 1623.51L335.867 1611.53V1687.73L419.379 1675.84L366.841 1740.48L431.317 1778.58L462.721 1705.44L492.862 1778.58L560.268 1740.48L506.591 1675.84Z" fill="#35E214"/>
<path fill-rule="evenodd" clip-rule="evenodd" d="M600.09 1925.72L533.059 1953.34L600.154 1982.15L555.844 2057.13L496.931 2009.26L507.778 2085.41H419.329L430.25 2009.26L371.267 2057.13L326.958 1982.15L394.122 1953.34L327.021 1925.73L371.206 1847.55L429.635 1896.01L416.175 1821.08H507.783L496.975 1896.48L555.905 1847.55L600.09 1925.72ZM489.761 1909.37L501.656 1826.39H422.527L437.433 1909.37L372.705 1855.7L334.605 1923.1L407.834 1953.24L334.605 1984.65L372.705 2049.12L437.433 1996.58L425.457 2080.1H501.656L489.761 1996.58L554.408 2049.12L592.507 1984.65L519.36 1953.24L592.507 1923.1L554.408 1855.7L489.761 1909.37Z" fill="#35E214"/>
<path fill-rule="evenodd" clip-rule="evenodd" d="M490.241 2393.39L462.62 2326.36L433.815 2393.45L358.83 2349.14L406.707 2290.23L330.555 2301.08V2212.63L406.707 2223.55L358.833 2164.57L433.817 2120.26L462.62 2187.42L490.239 2120.32L568.411 2164.51L519.959 2222.94L594.887 2209.48V2301.08L519.486 2290.28L568.415 2349.21L490.241 2393.39ZM506.591 2283.06L589.575 2294.96V2215.83L506.591 2230.73L560.268 2166.01L492.862 2127.91L462.721 2201.14L431.317 2127.91L366.841 2166.01L419.379 2230.73L335.867 2218.76V2294.96L419.379 2283.06L366.841 2347.71L431.317 2385.81L462.721 2312.66L492.862 2385.81L560.268 2347.71L506.591 2283.06Z" fill="#35E214"/>
<path fill-rule="evenodd" clip-rule="evenodd" d="M433.938 2426.03L461.558 2493.07L490.364 2425.97L565.349 2470.28L517.472 2529.19L593.623 2518.35V2606.79L517.471 2595.87L565.346 2654.86L490.362 2699.17L461.558 2632L433.94 2699.1L355.767 2654.92L404.22 2596.49L329.292 2609.95V2518.34L404.693 2529.15L355.764 2470.22L433.938 2426.03ZM417.587 2536.36L334.604 2524.47V2603.6L417.587 2588.69L363.911 2653.42L431.317 2691.52L461.458 2618.29L492.862 2691.52L557.337 2653.42L504.799 2588.69L588.312 2600.67V2524.47L504.799 2536.36L557.337 2471.72L492.862 2433.62L461.458 2506.76L431.317 2433.62L363.911 2471.72L417.587 2536.36Z" fill="#35E214"/>
<path fill-rule="evenodd" clip-rule="evenodd" d="M600.09 2838.66L533.059 2866.28L600.154 2895.08L555.844 2970.07L496.931 2922.19L507.778 2998.34H419.329L430.25 2922.19L371.267 2970.07L326.958 2895.08L394.122 2866.28L327.021 2838.66L371.206 2760.49L429.635 2808.94L416.175 2734.01H507.783L496.975 2809.41L555.905 2760.48L600.09 2838.66ZM489.761 2822.31L501.656 2739.32H422.527L437.433 2822.31L372.705 2768.63L334.605 2836.04L407.834 2866.18L334.605 2897.58L372.705 2962.06L437.433 2909.52L425.457 2993.03H501.656L489.761 2909.52L554.408 2962.06L592.507 2897.58L519.36 2866.18L592.507 2836.04L554.408 2768.63L489.761 2822.31Z" fill="#35E214"/>
<path fill-rule="evenodd" clip-rule="evenodd" d="M819.579 273.132L791.958 206.101L763.153 273.196L688.167 228.886L736.045 169.973L659.893 180.82V92.3712L736.045 103.292L688.171 44.3088L763.155 0L791.958 67.1644L819.577 0.0632893L897.749 44.2477L849.297 102.677L924.225 89.2174V180.825L848.824 170.017L897.753 228.947L819.579 273.132ZM835.929 162.803L918.913 174.698V95.5685L835.929 110.475L889.606 45.7465L822.199 7.64737L792.059 80.8763L760.655 7.64737L696.179 45.7465L748.717 110.475L665.205 98.4992V174.698L748.717 162.803L696.179 227.45L760.655 265.549L792.059 192.402L822.199 265.549L889.606 227.45L835.929 162.803Z" fill="#35E214"/>
<path fill-rule="evenodd" clip-rule="evenodd" d="M929.427 412.691L862.396 440.312L929.49 469.117L885.181 544.103L826.268 496.225L837.115 572.377H748.666L759.587 496.225L700.604 544.099L656.295 469.115L723.459 440.312L656.358 412.693L700.543 334.521L758.972 382.974L745.512 308.045H837.12L826.312 383.447L885.242 334.517L929.427 412.691ZM819.098 396.341L830.992 313.357H751.863L766.77 396.341L702.041 342.664L663.942 410.071L737.171 440.211L663.942 471.615L702.041 536.091L766.77 483.553L754.794 567.065H830.992L819.098 483.553L883.745 536.091L921.844 471.615L848.697 440.211L921.844 410.071L883.745 342.664L819.098 396.341Z" fill="#35E214"/>
<path fill-rule="evenodd" clip-rule="evenodd" d="M929.427 714.206L862.396 741.827L929.49 770.632L885.181 845.618L826.268 797.74L837.115 873.892H748.666L759.587 797.74L700.604 845.614L656.295 770.63L723.459 741.827L656.358 714.208L700.543 636.036L758.972 684.489L745.512 609.561H837.12L826.312 684.962L885.242 636.032L929.427 714.206ZM819.098 697.856L830.992 614.872H751.863L766.77 697.856L702.041 644.18L663.942 711.586L737.171 741.726L663.942 773.131L702.041 837.606L766.77 785.068L754.794 868.58H830.992L819.098 785.068L883.745 837.606L921.844 773.131L848.697 741.726L921.844 711.586L883.745 644.18L819.098 697.856Z" fill="#35E214"/>
<path fill-rule="evenodd" clip-rule="evenodd" d="M658.74 1070.76L725.771 1043.14L658.677 1014.33L702.986 939.35L761.899 987.227L751.052 911.075H839.501L828.58 987.227L887.563 939.353L931.872 1014.34L864.708 1043.14L931.809 1070.76L887.624 1148.93L829.195 1100.48L842.655 1175.41H751.047L761.855 1100.01L702.925 1148.93L658.74 1070.76ZM769.069 1087.11L757.175 1170.09H836.304L821.397 1087.11L886.126 1140.79L924.225 1073.38L850.996 1043.24L924.225 1011.84L886.126 947.361L821.397 999.899L833.373 916.387H757.175L769.069 999.899L704.422 947.361L666.323 1011.84L739.47 1043.24L666.323 1073.38L704.422 1140.79L769.069 1087.11Z" fill="#35E214"/>
<path fill-rule="evenodd" clip-rule="evenodd" d="M658.74 1372.28L725.771 1344.66L658.677 1315.85L702.986 1240.86L761.899 1288.74L751.052 1212.59H839.501L828.58 1288.74L887.563 1240.87L931.872 1315.85L864.708 1344.66L931.809 1372.27L887.624 1450.45L829.195 1401.99L842.655 1476.92H751.047L761.855 1401.52L702.925 1450.45L658.74 1372.28ZM769.069 1388.63L757.175 1471.61H836.304L821.397 1388.63L886.126 1442.3L924.225 1374.9L850.996 1344.76L924.225 1313.35L886.126 1248.88L821.397 1301.41L833.373 1217.9H757.175L769.069 1301.41L704.422 1248.88L666.323 1313.35L739.47 1344.76L666.323 1374.9L704.422 1442.3L769.069 1388.63Z" fill="#35E214"/>
<path fill-rule="evenodd" clip-rule="evenodd" d="M929.427 1618.75L862.396 1646.37L929.49 1675.18L885.181 1750.16L826.268 1702.28L837.115 1778.44H748.666L759.587 1702.28L700.604 1750.16L656.295 1675.17L723.459 1646.37L656.358 1618.75L700.543 1540.58L758.972 1589.03L745.512 1514.1H837.12L826.312 1589.51L885.242 1540.58L929.427 1618.75ZM819.098 1602.4L830.992 1519.42H751.863L766.77 1602.4L702.041 1548.72L663.942 1616.13L737.171 1646.27L663.942 1677.67L702.041 1742.15L766.77 1689.61L754.794 1773.12H830.992L819.098 1689.61L883.745 1742.15L921.844 1677.67L848.697 1646.27L921.844 1616.13L883.745 1548.72L819.098 1602.4Z" fill="#35E214"/>
<path fill-rule="evenodd" clip-rule="evenodd" d="M658.74 1975.31L725.771 1947.69L658.677 1918.88L702.986 1843.9L761.899 1891.77L751.052 1815.62H839.501L828.58 1891.77L887.563 1843.9L931.872 1918.88L864.708 1947.69L931.809 1975.31L887.624 2053.48L829.195 2005.03L842.655 2079.95H751.047L761.855 2004.55L702.925 2053.48L658.74 1975.31ZM769.069 1991.66L757.175 2074.64H836.304L821.397 1991.66L886.126 2045.33L924.225 1977.93L850.996 1947.79L924.225 1916.38L886.126 1851.91L821.397 1904.45L833.373 1820.93H757.175L769.069 1904.45L704.422 1851.91L666.323 1916.38L739.47 1947.79L666.323 1977.93L704.422 2045.33L769.069 1991.66Z" fill="#35E214"/>
<path fill-rule="evenodd" clip-rule="evenodd" d="M763.276 2114.87L790.896 2181.9L819.702 2114.8L894.687 2159.11L846.81 2218.03L922.961 2207.18V2295.63L846.809 2284.71L894.684 2343.69L819.7 2388L790.896 2320.83L763.278 2387.94L685.105 2343.75L733.558 2285.32L658.63 2298.78V2207.17L734.031 2217.98L685.102 2159.05L763.276 2114.87ZM746.925 2225.2L663.942 2213.3V2292.43L746.925 2277.52L693.249 2342.25L760.655 2380.35L790.796 2307.12L822.2 2380.35L886.675 2342.25L834.137 2277.52L917.649 2289.5V2213.3L834.137 2225.2L886.675 2160.55L822.2 2122.45L790.796 2195.6L760.655 2122.45L693.249 2160.55L746.925 2225.2Z" fill="#35E214"/>
<path fill-rule="evenodd" clip-rule="evenodd" d="M819.579 2693.64L791.958 2626.61L763.153 2693.71L688.167 2649.4L736.045 2590.48L659.893 2601.33V2512.88L736.045 2523.8L688.171 2464.82L763.155 2420.51L791.958 2487.68L819.577 2420.57L897.749 2464.76L849.297 2523.19L924.225 2509.73V2601.34L848.824 2590.53L897.753 2649.46L819.579 2693.64ZM835.929 2583.31L918.913 2595.21V2516.08L835.929 2530.99L889.606 2466.26L822.199 2428.16L792.059 2501.39L760.655 2428.16L696.179 2466.26L748.717 2530.99L665.205 2519.01V2595.21L748.717 2583.31L696.179 2647.96L760.655 2686.06L792.059 2612.91L822.199 2686.06L889.606 2647.96L835.929 2583.31Z" fill="#35E214"/>
<path fill-rule="evenodd" clip-rule="evenodd" d="M763.276 2726.29L790.896 2793.32L819.702 2726.22L894.687 2770.53L846.81 2829.44L922.961 2818.6V2907.05L846.809 2896.13L894.684 2955.11L819.7 2999.42L790.896 2932.25L763.278 2999.35L685.105 2955.17L733.558 2896.74L658.63 2910.2V2818.59L734.031 2829.4L685.102 2770.47L763.276 2726.29ZM746.925 2836.62L663.942 2824.72V2903.85L746.925 2888.94L693.249 2953.67L760.655 2991.77L790.796 2918.54L822.2 2991.77L886.675 2953.67L834.137 2888.94L917.649 2900.92V2824.72L834.137 2836.62L886.675 2771.97L822.2 2733.87L790.796 2807.02L760.655 2733.87L693.249 2771.97L746.925 2836.62Z" fill="#35E214"/>
<path fill-rule="evenodd" clip-rule="evenodd" d="M988.077 163.285L1055.11 135.665L988.013 106.859L1032.32 31.874L1091.24 79.7515L1080.39 3.59968H1168.84L1157.92 79.7517L1216.9 31.8773L1261.21 106.861L1194.04 135.665L1261.15 163.283L1216.96 241.456L1158.53 193.003L1171.99 267.931H1080.38L1091.19 192.53L1032.26 241.459L988.077 163.285ZM1098.41 179.636L1086.51 262.619H1165.64L1150.73 179.636L1215.46 233.312L1253.56 165.906L1180.33 135.765L1253.56 104.361L1215.46 39.8857L1150.73 92.4237L1162.71 8.91158H1086.51L1098.41 92.4237L1033.76 39.8857L995.66 104.361L1068.81 135.765L995.66 165.906L1033.76 233.312L1098.41 179.636Z" fill="#35E214"/>
<path fill-rule="evenodd" clip-rule="evenodd" d="M1092.61 302.843L1120.24 369.875L1149.04 302.78L1224.03 347.09L1176.15 406.002L1252.3 395.156V483.604L1176.15 472.684L1224.02 531.667L1149.04 575.976L1120.24 508.811L1092.62 575.912L1014.44 531.728L1062.9 473.298L987.969 486.758V395.15L1063.37 405.958L1014.44 347.028L1092.61 302.843ZM1076.26 413.173L993.281 401.278V480.407L1076.26 465.5L1022.59 530.229L1089.99 568.328L1120.13 495.099L1151.54 568.328L1216.01 530.229L1163.48 465.5L1246.99 477.476V401.278L1163.48 413.173L1216.01 348.525L1151.54 310.426L1120.13 383.574L1089.99 310.426L1022.59 348.525L1076.26 413.173Z" fill="#35E214"/>
<path fill-rule="evenodd" clip-rule="evenodd" d="M1258.77 715.47L1191.73 743.09L1258.83 771.896L1214.52 846.881L1155.61 799.003L1166.45 875.155H1078.01L1088.93 799.003L1029.94 846.878L985.634 771.894L1052.8 743.09L985.697 715.472L1029.88 637.299L1088.31 685.752L1074.85 610.824H1166.46L1155.65 686.225L1214.58 637.296L1258.77 715.47ZM1148.44 699.119L1160.33 616.136H1081.2L1096.11 699.119L1031.38 645.443L993.281 712.849L1066.51 742.989L993.281 774.394L1031.38 838.869L1096.11 786.331L1084.13 869.843H1160.33L1148.44 786.331L1213.08 838.869L1251.18 774.394L1178.04 742.989L1251.18 712.849L1213.08 645.443L1148.44 699.119Z" fill="#35E214"/>
<path fill-rule="evenodd" clip-rule="evenodd" d="M1148.92 1183.14L1121.3 1116.1L1092.49 1183.2L1017.51 1138.89L1065.38 1079.98L989.232 1090.82V1002.37L1065.38 1013.3L1017.51 954.312L1092.49 910.003L1121.3 977.168L1148.92 910.067L1227.09 954.251L1178.64 1012.68L1253.56 999.221V1090.83L1178.16 1080.02L1227.09 1138.95L1148.92 1183.14ZM1165.27 1072.81L1248.25 1084.7V1005.57L1165.27 1020.48L1218.94 955.75L1151.54 917.651L1121.4 990.88L1089.99 917.651L1025.52 955.75L1078.06 1020.48L994.544 1008.5V1084.7L1078.06 1072.81L1025.52 1137.45L1089.99 1175.55L1121.4 1102.41L1151.54 1175.55L1218.94 1137.45L1165.27 1072.81Z" fill="#35E214"/>
<path fill-rule="evenodd" clip-rule="evenodd" d="M988.077 1377.73L1055.11 1350.11L988.013 1321.31L1032.32 1246.32L1091.24 1294.2L1080.39 1218.05H1168.84L1157.92 1294.2L1216.9 1246.33L1261.21 1321.31L1194.04 1350.11L1261.15 1377.73L1216.96 1455.9L1158.53 1407.45L1171.99 1482.38H1080.38L1091.19 1406.98L1032.26 1455.91L988.077 1377.73ZM1098.41 1394.08L1086.51 1477.07H1165.64L1150.73 1394.08L1215.46 1447.76L1253.56 1380.35L1180.33 1350.21L1253.56 1318.81L1215.46 1254.33L1150.73 1306.87L1162.71 1223.36H1086.51L1098.41 1306.87L1033.76 1254.33L995.66 1318.81L1068.81 1350.21L995.66 1380.35L1033.76 1447.76L1098.41 1394.08Z" fill="#35E214"/>
<path fill-rule="evenodd" clip-rule="evenodd" d="M1092.61 1517.29L1120.24 1584.32L1149.04 1517.23L1224.03 1561.54L1176.15 1620.45L1252.3 1609.61V1698.05L1176.15 1687.13L1224.02 1746.12L1149.04 1790.43L1120.24 1723.26L1092.62 1790.36L1014.44 1746.18L1062.9 1687.75L987.969 1701.21V1609.6L1063.37 1620.41L1014.44 1561.48L1092.61 1517.29ZM1076.26 1627.62L993.281 1615.73V1694.86L1076.26 1679.95L1022.59 1744.68L1089.99 1782.78L1120.13 1709.55L1151.54 1782.78L1216.01 1744.68L1163.48 1679.95L1246.99 1691.93V1615.73L1163.48 1627.62L1216.01 1562.98L1151.54 1524.88L1120.13 1598.02L1089.99 1524.88L1022.59 1562.98L1076.26 1627.62Z" fill="#35E214"/>
<path fill-rule="evenodd" clip-rule="evenodd" d="M1092.61 1823L1120.24 1890.03L1149.04 1822.94L1224.03 1867.25L1176.15 1926.16L1252.3 1915.32V2003.76L1176.15 1992.84L1224.02 2051.83L1149.04 2096.13L1120.24 2028.97L1092.62 2096.07L1014.44 2051.89L1062.9 1993.46L987.969 2006.92V1915.31L1063.37 1926.12L1014.44 1867.19L1092.61 1823ZM1076.26 1933.33L993.281 1921.44V2000.57L1076.26 1985.66L1022.59 2050.39L1089.99 2088.49L1120.13 2015.26L1151.54 2088.49L1216.01 2050.39L1163.48 1985.66L1246.99 1997.64V1921.44L1163.48 1933.33L1216.01 1868.68L1151.54 1830.59L1120.13 1903.73L1089.99 1830.59L1022.59 1868.68L1076.26 1933.33Z" fill="#35E214"/>
<path fill-rule="evenodd" clip-rule="evenodd" d="M988.077 2290.67L1055.11 2263.05L988.013 2234.24L1032.32 2159.26L1091.24 2207.13L1080.39 2130.98H1168.84L1157.92 2207.13L1216.9 2159.26L1261.21 2234.24L1194.04 2263.05L1261.15 2290.67L1216.96 2368.84L1158.53 2320.39L1171.99 2395.31H1080.38L1091.19 2319.91L1032.26 2368.84L988.077 2290.67ZM1098.41 2307.02L1086.51 2390H1165.64L1150.73 2307.02L1215.46 2360.69L1253.56 2293.29L1180.33 2263.15L1253.56 2231.74L1215.46 2167.27L1150.73 2219.81L1162.71 2136.29H1086.51L1098.41 2219.81L1033.76 2167.27L995.66 2231.74L1068.81 2263.15L995.66 2293.29L1033.76 2360.69L1098.41 2307.02Z" fill="#35E214"/>
<path fill-rule="evenodd" clip-rule="evenodd" d="M1092.61 2430.23L1120.24 2497.26L1149.04 2430.16L1224.03 2474.47L1176.15 2533.39L1252.3 2522.54V2610.99L1176.15 2600.07L1224.02 2659.05L1149.04 2703.36L1120.24 2636.19L1092.62 2703.3L1014.44 2659.11L1062.9 2600.68L987.969 2614.14V2522.53L1063.37 2533.34L1014.44 2474.41L1092.61 2430.23ZM1076.26 2540.56L993.281 2528.66V2607.79L1076.26 2592.88L1022.59 2657.61L1089.99 2695.71L1120.13 2622.48L1151.54 2695.71L1216.01 2657.61L1163.48 2592.88L1246.99 2604.86V2528.66L1163.48 2540.56L1216.01 2475.91L1151.54 2437.81L1120.13 2510.96L1089.99 2437.81L1022.59 2475.91L1076.26 2540.56Z" fill="#35E214"/>
<path fill-rule="evenodd" clip-rule="evenodd" d="M1258.77 2842.85L1191.73 2870.47L1258.83 2899.28L1214.52 2974.26L1155.61 2926.39L1166.45 3002.54H1078.01L1088.93 2926.39L1029.94 2974.26L985.634 2899.28L1052.8 2870.47L985.697 2842.85L1029.88 2764.68L1088.31 2813.13L1074.85 2738.21H1166.46L1155.65 2813.61L1214.58 2764.68L1258.77 2842.85ZM1148.44 2826.5L1160.33 2743.52H1081.2L1096.11 2826.5L1031.38 2772.83L993.281 2840.23L1066.51 2870.37L993.281 2901.78L1031.38 2966.25L1096.11 2913.71L1084.13 2997.23H1160.33L1148.44 2913.71L1213.08 2966.25L1251.18 2901.78L1178.04 2870.37L1251.18 2840.23L1213.08 2772.83L1148.44 2826.5Z" fill="#35E214"/>
<path fill-rule="evenodd" clip-rule="evenodd" d="M1483.57 273.132L1455.95 206.101L1427.14 273.196L1352.16 228.886L1400.03 169.973L1323.88 180.82V92.3712L1400.03 103.292L1352.16 44.3088L1427.14 0L1455.95 67.1644L1483.57 0.0632893L1561.74 44.2477L1513.29 102.677L1588.21 89.2174V180.825L1512.81 170.017L1561.74 228.947L1483.57 273.132ZM1499.92 162.803L1582.9 174.698V95.5685L1499.92 110.475L1553.59 45.7465L1486.19 7.64737L1456.05 80.8763L1424.64 7.64737L1360.17 45.7465L1412.71 110.475L1329.19 98.4992V174.698L1412.71 162.803L1360.17 227.45L1424.64 265.549L1456.05 192.402L1486.19 265.549L1553.59 227.45L1499.92 162.803Z" fill="#35E214"/>
<path fill-rule="evenodd" clip-rule="evenodd" d="M1317.41 467.731L1384.45 440.111L1317.35 411.305L1361.66 336.32L1420.57 384.197L1409.73 308.045H1498.18L1487.25 384.197L1546.24 336.323L1590.55 411.307L1523.38 440.111L1590.48 467.729L1546.3 545.902L1487.87 497.449L1501.33 572.377H1409.72L1420.53 496.976L1361.6 545.905L1317.41 467.731ZM1427.74 484.081L1415.85 567.065H1494.98L1480.07 484.081L1544.8 537.758L1582.9 470.352L1509.67 440.211L1582.9 408.807L1544.8 344.331L1480.07 396.869L1492.05 313.357H1415.85L1427.74 396.869L1363.1 344.331L1325 408.807L1398.14 440.211L1325 470.352L1363.1 537.758L1427.74 484.081Z" fill="#35E214"/>
<path fill-rule="evenodd" clip-rule="evenodd" d="M1588.1 714.206L1521.07 741.827L1588.17 770.632L1543.86 845.618L1484.94 797.74L1495.79 873.892H1407.34L1418.26 797.74L1359.28 845.614L1314.97 770.63L1382.14 741.827L1315.03 714.208L1359.22 636.036L1417.65 684.489L1404.19 609.561H1495.8L1484.99 684.962L1543.92 636.032L1588.1 714.206ZM1477.77 697.856L1489.67 614.872H1410.54L1425.45 697.856L1360.72 644.18L1322.62 711.586L1395.85 741.726L1322.62 773.131L1360.72 837.606L1425.45 785.068L1413.47 868.58H1489.67L1477.77 785.068L1542.42 837.606L1580.52 773.131L1507.37 741.726L1580.52 711.586L1542.42 644.18L1477.77 697.856Z" fill="#35E214"/>
<path fill-rule="evenodd" clip-rule="evenodd" d="M1427.26 908.805L1454.88 975.837L1483.69 908.742L1558.67 953.051L1510.8 1011.96L1586.95 1001.12V1089.57L1510.8 1078.65L1558.67 1137.63L1483.69 1181.94L1454.88 1114.77L1427.27 1181.87L1349.09 1137.69L1397.55 1079.26L1322.62 1092.72V1001.11L1398.02 1011.92L1349.09 952.99L1427.26 908.805ZM1410.91 1019.13L1327.93 1007.24V1086.37L1410.91 1071.46L1357.24 1136.19L1424.64 1174.29L1454.78 1101.06L1486.19 1174.29L1550.66 1136.19L1498.12 1071.46L1581.64 1083.44V1007.24L1498.12 1019.13L1550.66 954.487L1486.19 916.388L1454.78 989.536L1424.64 916.388L1357.24 954.487L1410.91 1019.13Z" fill="#35E214"/>
<path fill-rule="evenodd" clip-rule="evenodd" d="M1588.1 1321.43L1521.07 1349.05L1588.17 1377.86L1543.86 1452.84L1484.94 1404.96L1495.79 1481.12H1407.34L1418.26 1404.96L1359.28 1452.84L1314.97 1377.85L1382.14 1349.05L1315.03 1321.43L1359.22 1243.26L1417.65 1291.71L1404.19 1216.78H1495.8L1484.99 1292.19L1543.92 1243.26L1588.1 1321.43ZM1477.77 1305.08L1489.67 1222.1H1410.54L1425.45 1305.08L1360.72 1251.4L1322.62 1318.81L1395.85 1348.95L1322.62 1380.35L1360.72 1444.83L1425.45 1392.29L1413.47 1475.8H1489.67L1477.77 1392.29L1542.42 1444.83L1580.52 1380.35L1507.37 1348.95L1580.52 1318.81L1542.42 1251.4L1477.77 1305.08Z" fill="#35E214"/>
<path fill-rule="evenodd" clip-rule="evenodd" d="M1588.1 1622.95L1521.07 1650.57L1588.17 1679.37L1543.86 1754.36L1484.94 1706.48L1495.79 1782.63H1407.34L1418.26 1706.48L1359.28 1754.35L1314.97 1679.37L1382.14 1650.57L1315.03 1622.95L1359.22 1544.77L1417.65 1593.23L1404.19 1518.3H1495.8L1484.99 1593.7L1543.92 1544.77L1588.1 1622.95ZM1477.77 1606.59L1489.67 1523.61H1410.54L1425.45 1606.59L1360.72 1552.92L1322.62 1620.32L1395.85 1650.47L1322.62 1681.87L1360.72 1746.34L1425.45 1693.81L1413.47 1777.32H1489.67L1477.77 1693.81L1542.42 1746.34L1580.52 1681.87L1507.37 1650.47L1580.52 1620.32L1542.42 1552.92L1477.77 1606.59Z" fill="#35E214"/>
<path fill-rule="evenodd" clip-rule="evenodd" d="M1317.41 1979.5L1384.45 1951.88L1317.35 1923.07L1361.66 1848.09L1420.57 1895.97L1409.73 1819.82H1498.18L1487.25 1895.97L1546.24 1848.09L1590.55 1923.08L1523.38 1951.88L1590.48 1979.5L1546.3 2057.67L1487.87 2009.22L1501.33 2084.15H1409.72L1420.53 2008.75L1361.6 2057.67L1317.41 1979.5ZM1427.74 1995.85L1415.85 2078.83H1494.98L1480.07 1995.85L1544.8 2049.53L1582.9 1982.12L1509.67 1951.98L1582.9 1920.58L1544.8 1856.1L1480.07 1908.64L1492.05 1825.13H1415.85L1427.74 1908.64L1363.1 1856.1L1325 1920.58L1398.14 1951.98L1325 1982.12L1363.1 2049.53L1427.74 1995.85Z" fill="#35E214"/>
<path fill-rule="evenodd" clip-rule="evenodd" d="M1483.57 2392.13L1455.95 2325.1L1427.14 2392.19L1352.16 2347.88L1400.03 2288.97L1323.88 2299.82V2211.37L1400.03 2222.29L1352.16 2163.3L1427.14 2119L1455.95 2186.16L1483.57 2119.06L1561.74 2163.24L1513.29 2221.67L1588.21 2208.21V2299.82L1512.81 2289.01L1561.74 2347.94L1483.57 2392.13ZM1499.92 2281.8L1582.9 2293.69V2214.56L1499.92 2229.47L1553.59 2164.74L1486.19 2126.64L1456.05 2199.87L1424.64 2126.64L1360.17 2164.74L1412.71 2229.47L1329.19 2217.5V2293.69L1412.71 2281.8L1360.17 2346.45L1424.64 2384.55L1456.05 2311.4L1486.19 2384.55L1553.59 2346.45L1499.92 2281.8Z" fill="#35E214"/>
<path fill-rule="evenodd" clip-rule="evenodd" d="M1483.57 2697.84L1455.95 2630.81L1427.14 2697.9L1352.16 2653.59L1400.03 2594.68L1323.88 2605.52V2517.08L1400.03 2528L1352.16 2469.01L1427.14 2424.71L1455.95 2491.87L1483.57 2424.77L1561.74 2468.95L1513.29 2527.38L1588.21 2513.92V2605.53L1512.81 2594.72L1561.74 2653.65L1483.57 2697.84ZM1499.92 2587.51L1582.9 2599.4V2520.27L1499.92 2535.18L1553.59 2470.45L1486.19 2432.35L1456.05 2505.58L1424.64 2432.35L1360.17 2470.45L1412.71 2535.18L1329.19 2523.2V2599.4L1412.71 2587.51L1360.17 2652.16L1424.64 2690.25L1456.05 2617.11L1486.19 2690.25L1553.59 2652.16L1499.92 2587.51Z" fill="#35E214"/>
<path fill-rule="evenodd" clip-rule="evenodd" d="M1427.26 2730.48L1454.88 2797.51L1483.69 2730.42L1558.67 2774.73L1510.8 2833.64L1586.95 2822.79V2911.24L1510.8 2900.32L1558.67 2959.3L1483.69 3003.61L1454.88 2936.45L1427.27 3003.55L1349.09 2959.36L1397.55 2900.93L1322.62 2914.39V2822.79L1398.02 2833.59L1349.09 2774.66L1427.26 2730.48ZM1410.91 2840.81L1327.93 2828.91V2908.04L1410.91 2893.14L1357.24 2957.86L1424.64 2995.96L1454.78 2922.74L1486.19 2995.96L1550.66 2957.86L1498.12 2893.14L1581.64 2905.11V2828.91L1498.12 2840.81L1550.66 2776.16L1486.19 2738.06L1454.78 2811.21L1424.64 2738.06L1357.24 2776.16L1410.91 2840.81Z" fill="#35E214"/>
<path fill-rule="evenodd" clip-rule="evenodd" d="M1751.29 0.0649288L1778.91 67.0964L1807.72 0.00172759L1882.7 44.3112L1834.82 103.224L1910.98 92.3776V180.826L1834.82 169.905L1882.7 228.888L1807.71 273.197L1778.91 206.033L1751.29 273.134L1673.12 228.95L1721.57 170.52L1646.64 183.98V92.3721L1722.04 103.18L1673.12 44.2502L1751.29 0.0649288ZM1734.94 110.395L1651.96 98.4997V177.629L1734.94 162.722L1681.26 227.451L1748.67 265.55L1778.81 192.321L1810.21 265.55L1874.69 227.451L1822.15 162.722L1905.66 174.698V98.4997L1822.15 110.395L1874.69 45.747L1810.21 7.64784L1778.81 80.7953L1748.67 7.64784L1681.26 45.747L1734.94 110.395Z" fill="#35E214"/>
<path fill-rule="evenodd" clip-rule="evenodd" d="M1917.44 412.691L1850.41 440.312L1917.51 469.117L1873.2 544.103L1814.28 496.225L1825.13 572.377H1736.68L1747.6 496.225L1688.62 544.099L1644.31 469.115L1711.47 440.312L1644.37 412.693L1688.56 334.521L1746.99 382.974L1733.53 308.045H1825.14L1814.33 383.447L1873.26 334.517L1917.44 412.691ZM1807.11 396.341L1819.01 313.357H1739.88L1754.79 396.341L1690.06 342.664L1651.96 410.071L1725.19 440.211L1651.96 471.615L1690.06 536.091L1754.79 483.553L1742.81 567.065H1819.01L1807.11 483.553L1871.76 536.091L1909.86 471.615L1836.71 440.211L1909.86 410.071L1871.76 342.664L1807.11 396.341Z" fill="#35E214"/>
<path fill-rule="evenodd" clip-rule="evenodd" d="M1807.59 880.357L1779.97 813.325L1751.17 880.42L1676.18 836.111L1724.06 777.198L1647.91 788.044V699.596L1724.06 710.517L1676.19 651.533L1751.17 607.225L1779.97 674.389L1807.59 607.288L1885.76 651.472L1837.31 709.902L1912.24 696.442V788.05L1836.84 777.242L1885.77 836.172L1807.59 880.357ZM1823.94 770.027L1906.93 781.922V702.793L1823.94 717.7L1877.62 652.971L1810.22 614.872L1780.07 688.101L1748.67 614.872L1684.19 652.971L1736.73 717.7L1653.22 705.724V781.922L1736.73 770.027L1684.19 834.675L1748.67 872.774L1780.07 799.627L1810.22 872.774L1877.62 834.675L1823.94 770.027Z" fill="#35E214"/>
<path fill-rule="evenodd" clip-rule="evenodd" d="M1751.29 912.999L1778.91 980.031L1807.72 912.936L1882.7 957.246L1834.82 1016.16L1910.98 1005.31V1093.76L1834.82 1082.84L1882.7 1141.82L1807.71 1186.13L1778.91 1118.97L1751.29 1186.07L1673.12 1141.88L1721.57 1083.45L1646.64 1096.91V1005.31L1722.04 1016.11L1673.12 957.185L1751.29 912.999ZM1734.94 1023.33L1651.96 1011.43V1090.56L1734.94 1075.66L1681.26 1140.39L1748.67 1178.48L1778.81 1105.26L1810.21 1178.48L1874.69 1140.39L1822.15 1075.66L1905.66 1087.63V1011.43L1822.15 1023.33L1874.69 958.682L1810.21 920.582L1778.81 993.73L1748.67 920.582L1681.26 958.682L1734.94 1023.33Z" fill="#35E214"/>
<path fill-rule="evenodd" clip-rule="evenodd" d="M1751.29 1218.71L1778.91 1285.74L1807.72 1218.65L1882.7 1262.95L1834.82 1321.87L1910.98 1311.02V1399.47L1834.82 1388.55L1882.7 1447.53L1807.71 1491.84L1778.91 1424.68L1751.29 1491.78L1673.12 1447.59L1721.57 1389.16L1646.64 1402.62V1311.02L1722.04 1321.82L1673.12 1262.89L1751.29 1218.71ZM1734.94 1329.04L1651.96 1317.14V1396.27L1734.94 1381.37L1681.26 1446.09L1748.67 1484.19L1778.81 1410.96L1810.21 1484.19L1874.69 1446.09L1822.15 1381.37L1905.66 1393.34V1317.14L1822.15 1329.04L1874.69 1264.39L1810.21 1226.29L1778.81 1299.44L1748.67 1226.29L1681.26 1264.39L1734.94 1329.04Z" fill="#35E214"/>
<path fill-rule="evenodd" clip-rule="evenodd" d="M1646.75 1686.37L1713.78 1658.75L1646.69 1629.95L1691 1554.96L1749.91 1602.84L1739.07 1526.69H1827.51L1816.59 1602.84L1875.58 1554.97L1919.89 1629.95L1852.72 1658.75L1919.82 1686.37L1875.64 1764.54L1817.21 1716.09L1830.67 1791.02H1739.06L1749.87 1715.62L1690.94 1764.55L1646.75 1686.37ZM1757.08 1702.72L1745.19 1785.71H1824.32L1809.41 1702.72L1874.14 1756.4L1912.24 1688.99L1839.01 1658.85L1912.24 1627.45L1874.14 1562.97L1809.41 1615.51L1821.39 1532H1745.19L1757.08 1615.51L1692.44 1562.97L1654.34 1627.45L1727.48 1658.85L1654.34 1688.99L1692.44 1756.4L1757.08 1702.72Z" fill="#35E214"/>
<path fill-rule="evenodd" clip-rule="evenodd" d="M1646.75 1987.89L1713.78 1960.27L1646.69 1931.46L1691 1856.48L1749.91 1904.35L1739.07 1828.2H1827.51L1816.59 1904.35L1875.58 1856.48L1919.89 1931.46L1852.72 1960.27L1919.82 1987.89L1875.64 2066.06L1817.21 2017.61L1830.67 2092.53H1739.06L1749.87 2017.13L1690.94 2066.06L1646.75 1987.89ZM1757.08 2004.24L1745.19 2087.22H1824.32L1809.41 2004.24L1874.14 2057.92L1912.24 1990.51L1839.01 1960.37L1912.24 1928.96L1874.14 1864.49L1809.41 1917.03L1821.39 1833.51H1745.19L1757.08 1917.03L1692.44 1864.49L1654.34 1928.96L1727.48 1960.37L1654.34 1990.51L1692.44 2057.92L1757.08 2004.24Z" fill="#35E214"/>
<path fill-rule="evenodd" clip-rule="evenodd" d="M1751.29 2127.45L1778.91 2194.48L1807.72 2127.39L1882.7 2171.69L1834.82 2230.61L1910.98 2219.76V2308.21L1834.82 2297.29L1882.7 2356.27L1807.71 2400.58L1778.91 2333.42L1751.29 2400.52L1673.12 2356.33L1721.57 2297.9L1646.64 2311.36V2219.76L1722.04 2230.56L1673.12 2171.63L1751.29 2127.45ZM1734.94 2237.78L1651.96 2225.88V2305.01L1734.94 2290.11L1681.26 2354.83L1748.67 2392.93L1778.81 2319.7L1810.21 2392.93L1874.69 2354.83L1822.15 2290.11L1905.66 2302.08V2225.88L1822.15 2237.78L1874.69 2173.13L1810.21 2135.03L1778.81 2208.18L1748.67 2135.03L1681.26 2173.13L1734.94 2237.78Z" fill="#35E214"/>
<path fill-rule="evenodd" clip-rule="evenodd" d="M1751.29 2433.16L1778.91 2500.19L1807.72 2433.1L1882.7 2477.4L1834.82 2536.32L1910.98 2525.47V2613.92L1834.82 2603L1882.7 2661.98L1807.71 2706.29L1778.91 2639.13L1751.29 2706.23L1673.12 2662.04L1721.57 2603.61L1646.64 2617.07V2525.47L1722.04 2536.27L1673.12 2477.34L1751.29 2433.16ZM1734.94 2543.49L1651.96 2531.59V2610.72L1734.94 2595.82L1681.26 2660.54L1748.67 2698.64L1778.81 2625.41L1810.21 2698.64L1874.69 2660.54L1822.15 2595.82L1905.66 2607.79V2531.59L1822.15 2543.49L1874.69 2478.84L1810.21 2440.74L1778.81 2513.89L1748.67 2440.74L1681.26 2478.84L1734.94 2543.49Z" fill="#35E214"/>
<path fill-rule="evenodd" clip-rule="evenodd" d="M1917.44 2845.78L1850.41 2873.4L1917.51 2902.21L1873.2 2977.19L1814.28 2929.32L1825.13 3005.47H1736.68L1747.6 2929.32L1688.62 2977.19L1644.31 2902.21L1711.47 2873.4L1644.37 2845.78L1688.56 2767.61L1746.99 2816.06L1733.53 2741.14H1825.14L1814.33 2816.54L1873.26 2767.61L1917.44 2845.78ZM1807.11 2829.43L1819.01 2746.45H1739.88L1754.79 2829.43L1690.06 2775.76L1651.96 2843.16L1725.19 2873.3L1651.96 2904.71L1690.06 2969.18L1754.79 2916.64L1742.81 3000.16H1819.01L1807.11 2916.64L1871.76 2969.18L1909.86 2904.71L1836.71 2873.3L1909.86 2843.16L1871.76 2775.76L1807.11 2829.43Z" fill="#35E214"/>
<path fill-rule="evenodd" clip-rule="evenodd" d="M1976.09 163.285L2043.12 135.665L1976.03 106.859L2020.34 31.874L2079.25 79.7515L2068.4 3.59968H2156.85L2145.93 79.7517L2204.91 31.8773L2249.22 106.861L2182.06 135.665L2249.16 163.283L2204.97 241.456L2146.55 193.003L2160.01 267.931H2068.4L2079.21 192.53L2020.28 241.459L1976.09 163.285ZM2086.42 179.636L2074.53 262.619H2153.65L2138.75 179.636L2203.48 233.312L2241.58 165.906L2168.35 135.765L2241.58 104.361L2203.48 39.8857L2138.75 92.4237L2150.72 8.91158H2074.53L2086.42 92.4237L2021.77 39.8857L1983.67 104.361L2056.82 135.765L1983.67 165.906L2021.77 233.312L2086.42 179.636Z" fill="#35E214"/>
<path fill-rule="evenodd" clip-rule="evenodd" d="M2142.24 575.911L2114.62 508.879L2085.82 575.974L2010.83 531.664L2058.71 472.751L1982.56 483.598V395.15L2058.71 406.07L2010.83 347.087L2085.82 302.778L2114.62 369.943L2142.24 302.842L2220.41 347.026L2171.96 405.456L2246.89 391.996V483.603L2171.49 472.795L2220.42 531.725L2142.24 575.911ZM2158.59 465.581L2241.58 477.476V398.347L2158.59 413.254L2212.27 348.525L2144.86 310.426L2114.72 383.655L2083.32 310.426L2018.84 348.525L2071.38 413.254L1987.87 401.278V477.476L2071.38 465.581L2018.84 530.229L2083.32 568.328L2114.72 495.18L2144.86 568.328L2212.27 530.229L2158.59 465.581Z" fill="#35E214"/>
<path fill-rule="evenodd" clip-rule="evenodd" d="M1976.09 770.509L2043.12 742.889L1976.03 714.083L2020.34 639.098L2079.25 686.976L2068.4 610.824H2156.85L2145.93 686.976L2204.91 639.101L2249.22 714.085L2182.06 742.889L2249.16 770.507L2204.97 848.68L2146.55 800.227L2160.01 875.155H2068.4L2079.21 799.754L2020.28 848.683L1976.09 770.509ZM2086.42 786.86L2074.53 869.843H2153.65L2138.75 786.86L2203.48 840.536L2241.58 773.13L2168.35 742.99L2241.58 711.585L2203.48 647.11L2138.75 699.648L2150.72 616.136H2074.53L2086.42 699.648L2021.77 647.11L1983.67 711.585L2056.82 742.99L1983.67 773.13L2021.77 840.536L2086.42 786.86Z" fill="#35E214"/>
<path fill-rule="evenodd" clip-rule="evenodd" d="M2142.24 1183.14L2114.62 1116.1L2085.82 1183.2L2010.83 1138.89L2058.71 1079.98L1982.56 1090.82V1002.37L2058.71 1013.3L2010.83 954.312L2085.82 910.003L2114.62 977.168L2142.24 910.067L2220.41 954.251L2171.96 1012.68L2246.89 999.221V1090.83L2171.49 1080.02L2220.42 1138.95L2142.24 1183.14ZM2158.59 1072.81L2241.58 1084.7V1005.57L2158.59 1020.48L2212.27 955.75L2144.86 917.651L2114.72 990.88L2083.32 917.651L2018.84 955.75L2071.38 1020.48L1987.87 1008.5V1084.7L2071.38 1072.81L2018.84 1137.45L2083.32 1175.55L2114.72 1102.41L2144.86 1175.55L2212.27 1137.45L2158.59 1072.81Z" fill="#35E214"/>
<path fill-rule="evenodd" clip-rule="evenodd" d="M2246.78 1322.69L2179.75 1350.31L2246.84 1379.12L2202.53 1454.1L2143.62 1406.23L2154.47 1482.38H2066.02L2076.94 1406.23L2017.96 1454.1L1973.65 1379.12L2040.81 1350.31L1973.71 1322.7L2017.9 1244.52L2076.33 1292.98L2062.87 1218.05H2154.47L2143.67 1293.45L2202.6 1244.52L2246.78 1322.69ZM2136.45 1306.34L2148.35 1223.36H2069.22L2084.12 1306.34L2019.39 1252.67L1981.3 1320.07L2054.52 1350.21L1981.3 1381.62L2019.39 1446.09L2084.12 1393.55L2072.15 1477.07H2148.35L2136.45 1393.55L2201.1 1446.09L2239.2 1381.62L2166.05 1350.21L2239.2 1320.07L2201.1 1252.67L2136.45 1306.34Z" fill="#35E214"/>
<path fill-rule="evenodd" clip-rule="evenodd" d="M1976.09 1679.25L2043.12 1651.63L1976.03 1622.82L2020.34 1547.84L2079.25 1595.71L2068.4 1519.56H2156.85L2145.93 1595.72L2204.91 1547.84L2249.22 1622.82L2182.06 1651.63L2249.16 1679.25L2204.97 1757.42L2146.55 1708.97L2160.01 1783.89H2068.4L2079.21 1708.49L2020.28 1757.42L1976.09 1679.25ZM2086.42 1695.6L2074.53 1778.58H2153.65L2138.75 1695.6L2203.48 1749.28L2241.58 1681.87L2168.35 1651.73L2241.58 1620.32L2203.48 1555.85L2138.75 1608.39L2150.72 1524.87H2074.53L2086.42 1608.39L2021.77 1555.85L1983.67 1620.32L2056.82 1651.73L1983.67 1681.87L2021.77 1749.28L2086.42 1695.6Z" fill="#35E214"/>
<path fill-rule="evenodd" clip-rule="evenodd" d="M1976.09 1980.76L2043.12 1953.14L1976.03 1924.34L2020.34 1849.35L2079.25 1897.23L2068.4 1821.08H2156.85L2145.93 1897.23L2204.91 1849.36L2249.22 1924.34L2182.06 1953.14L2249.16 1980.76L2204.97 2058.93L2146.55 2010.48L2160.01 2085.41H2068.4L2079.21 2010.01L2020.28 2058.94L1976.09 1980.76ZM2086.42 1997.11L2074.53 2080.1H2153.65L2138.75 1997.11L2203.48 2050.79L2241.58 1983.38L2168.35 1953.24L2241.58 1921.84L2203.48 1857.36L2138.75 1909.9L2150.72 1826.39H2074.53L2086.42 1909.9L2021.77 1857.36L1983.67 1921.84L2056.82 1953.24L1983.67 1983.38L2021.77 2050.79L2086.42 1997.11Z" fill="#35E214"/>
<path fill-rule="evenodd" clip-rule="evenodd" d="M2142.24 2393.39L2114.62 2326.36L2085.82 2393.45L2010.83 2349.14L2058.71 2290.23L1982.56 2301.08V2212.63L2058.71 2223.55L2010.83 2164.57L2085.82 2120.26L2114.62 2187.42L2142.24 2120.32L2220.41 2164.51L2171.96 2222.94L2246.89 2209.48V2301.08L2171.49 2290.28L2220.42 2349.21L2142.24 2393.39ZM2158.59 2283.06L2241.58 2294.96V2215.83L2158.59 2230.73L2212.27 2166.01L2144.86 2127.91L2114.72 2201.14L2083.32 2127.91L2018.84 2166.01L2071.38 2230.73L1987.87 2218.76V2294.96L2071.38 2283.06L2018.84 2347.71L2083.32 2385.81L2114.72 2312.66L2144.86 2385.81L2212.27 2347.71L2158.59 2283.06Z" fill="#35E214"/>
<path fill-rule="evenodd" clip-rule="evenodd" d="M1976.09 2587.99L2043.12 2560.37L1976.03 2531.56L2020.34 2456.58L2079.25 2504.46L2068.4 2428.3H2156.85L2145.93 2504.46L2204.91 2456.58L2249.22 2531.56L2182.06 2560.37L2249.16 2587.99L2204.97 2666.16L2146.55 2617.71L2160.01 2692.63H2068.4L2079.21 2617.23L2020.28 2666.16L1976.09 2587.99ZM2086.42 2604.34L2074.53 2687.32H2153.65L2138.75 2604.34L2203.48 2658.02L2241.58 2590.61L2168.35 2560.47L2241.58 2529.06L2203.48 2464.59L2138.75 2517.13L2150.72 2433.62H2074.53L2086.42 2517.13L2021.77 2464.59L1983.67 2529.06L2056.82 2560.47L1983.67 2590.61L2021.77 2658.02L2086.42 2604.34Z" fill="#35E214"/>
<path fill-rule="evenodd" clip-rule="evenodd" d="M2246.78 2834.46L2179.75 2862.08L2246.84 2890.89L2202.53 2965.88L2143.62 2918L2154.47 2994.15H2066.02L2076.94 2918L2017.96 2965.87L1973.65 2890.89L2040.81 2862.08L1973.71 2834.47L2017.9 2756.29L2076.33 2804.75L2062.87 2729.82H2154.47L2143.67 2805.22L2202.6 2756.29L2246.78 2834.46ZM2136.45 2818.11L2148.35 2735.13H2069.22L2084.12 2818.11L2019.39 2764.44L1981.3 2831.84L2054.52 2861.98L1981.3 2893.39L2019.39 2957.86L2084.12 2905.33L2072.15 2988.84H2148.35L2136.45 2905.33L2201.1 2957.86L2239.2 2893.39L2166.05 2861.98L2239.2 2831.84L2201.1 2764.44L2136.45 2818.11Z" fill="#35E214"/>
<path fill-rule="evenodd" clip-rule="evenodd" d="M2409.97 0.0649288L2437.59 67.0964L2466.39 0.00172759L2541.38 44.3112L2493.5 103.224L2569.65 92.3776V180.826L2493.5 169.905L2541.37 228.888L2466.39 273.197L2437.59 206.033L2409.97 273.134L2331.8 228.95L2380.25 170.52L2305.32 183.98V92.3721L2380.72 103.18L2331.79 44.2502L2409.97 0.0649288ZM2393.62 110.395L2310.63 98.4997V177.629L2393.62 162.722L2339.94 227.451L2407.35 265.55L2437.49 192.321L2468.89 265.55L2533.37 227.451L2480.83 162.722L2564.34 174.698V98.4997L2480.83 110.395L2533.37 45.747L2468.89 7.64784L2437.49 80.7953L2407.35 7.64784L2339.94 45.747L2393.62 110.395Z" fill="#35E214"/>
<path fill-rule="evenodd" clip-rule="evenodd" d="M2305.43 467.731L2372.46 440.111L2305.37 411.305L2349.68 336.32L2408.59 384.197L2397.74 308.045H2486.19L2475.27 384.197L2534.25 336.323L2578.56 411.307L2511.4 440.111L2578.5 467.729L2534.31 545.902L2475.89 497.449L2489.35 572.377H2397.74L2408.55 496.976L2349.62 545.905L2305.43 467.731ZM2415.76 484.081L2403.86 567.065H2482.99L2468.09 484.081L2532.82 537.758L2570.92 470.352L2497.69 440.211L2570.92 408.807L2532.82 344.331L2468.09 396.869L2480.06 313.357H2403.86L2415.76 396.869L2351.11 344.331L2313.01 408.807L2386.16 440.211L2313.01 470.352L2351.11 537.758L2415.76 484.081Z" fill="#35E214"/>
<path fill-rule="evenodd" clip-rule="evenodd" d="M2466.27 880.357L2438.65 813.325L2409.84 880.42L2334.86 836.111L2382.74 777.198L2306.58 788.044V699.596L2382.74 710.517L2334.86 651.533L2409.85 607.225L2438.65 674.389L2466.27 607.288L2544.44 651.472L2495.99 709.902L2570.92 696.442V788.05L2495.51 777.242L2544.44 836.172L2466.27 880.357ZM2482.62 770.027L2565.6 781.922V702.793L2482.62 717.7L2536.3 652.971L2468.89 614.872L2438.75 688.101L2407.35 614.872L2342.87 652.971L2395.41 717.7L2311.9 705.724V781.922L2395.41 770.027L2342.87 834.675L2407.35 872.774L2438.75 799.627L2468.89 872.774L2536.3 834.675L2482.62 770.027Z" fill="#35E214"/>
<path fill-rule="evenodd" clip-rule="evenodd" d="M2466.27 1186.07L2438.65 1119.04L2409.84 1186.13L2334.86 1141.82L2382.74 1082.91L2306.58 1093.75V1005.31L2382.74 1016.23L2334.86 957.243L2409.85 912.935L2438.65 980.099L2466.27 912.998L2544.44 957.182L2495.99 1015.61L2570.92 1002.15V1093.76L2495.51 1082.95L2544.44 1141.88L2466.27 1186.07ZM2482.62 1075.74L2565.6 1087.63V1008.5L2482.62 1023.41L2536.3 958.681L2468.89 920.582L2438.75 993.811L2407.35 920.582L2342.87 958.681L2395.41 1023.41L2311.9 1011.43V1087.63L2395.41 1075.74L2342.87 1140.38L2407.35 1178.48L2438.75 1105.34L2468.89 1178.48L2536.3 1140.38L2482.62 1075.74Z" fill="#35E214"/>
<path fill-rule="evenodd" clip-rule="evenodd" d="M2466.27 1491.78L2438.65 1424.74L2409.84 1491.84L2334.86 1447.53L2382.74 1388.62L2306.58 1399.46V1311.01L2382.74 1321.94L2334.86 1262.95L2409.85 1218.64L2438.65 1285.81L2466.27 1218.71L2544.44 1262.89L2495.99 1321.32L2570.92 1307.86V1399.47L2495.51 1388.66L2544.44 1447.59L2466.27 1491.78ZM2482.62 1381.45L2565.6 1393.34V1314.21L2482.62 1329.12L2536.3 1264.39L2468.89 1226.29L2438.75 1299.52L2407.35 1226.29L2342.87 1264.39L2395.41 1329.12L2311.9 1317.14V1393.34L2395.41 1381.45L2342.87 1446.09L2407.35 1484.19L2438.75 1411.05L2468.89 1484.19L2536.3 1446.09L2482.62 1381.45Z" fill="#35E214"/>
<path fill-rule="evenodd" clip-rule="evenodd" d="M2466.27 1797.49L2438.65 1730.45L2409.84 1797.55L2334.86 1753.24L2382.74 1694.33L2306.58 1705.17V1616.72L2382.74 1627.65L2334.86 1568.66L2409.85 1524.35L2438.65 1591.52L2466.27 1524.42L2544.44 1568.6L2495.99 1627.03L2570.92 1613.57V1705.18L2495.51 1694.37L2544.44 1753.3L2466.27 1797.49ZM2482.62 1687.16L2565.6 1699.05V1619.92L2482.62 1634.83L2536.3 1570.1L2468.89 1532L2438.75 1605.23L2407.35 1532L2342.87 1570.1L2395.41 1634.83L2311.9 1622.85V1699.05L2395.41 1687.16L2342.87 1751.8L2407.35 1789.9L2438.75 1716.75L2468.89 1789.9L2536.3 1751.8L2482.62 1687.16Z" fill="#35E214"/>
<path fill-rule="evenodd" clip-rule="evenodd" d="M2409.97 1830.13L2437.59 1897.16L2466.39 1830.06L2541.38 1874.37L2493.5 1933.29L2569.65 1922.44V2010.89L2493.5 1999.97L2541.37 2058.95L2466.39 2103.26L2437.59 2036.1L2409.97 2103.2L2331.8 2059.01L2380.25 2000.58L2305.32 2014.04V1922.43L2380.72 1933.24L2331.79 1874.31L2409.97 1830.13ZM2393.62 1940.46L2310.63 1928.56V2007.69L2393.62 1992.78L2339.94 2057.51L2407.35 2095.61L2437.49 2022.38L2468.89 2095.61L2533.37 2057.51L2480.83 1992.78L2564.34 2004.76V1928.56L2480.83 1940.46L2533.37 1875.81L2468.89 1837.71L2437.49 1910.86L2407.35 1837.71L2339.94 1875.81L2393.62 1940.46Z" fill="#35E214"/>
<path fill-rule="evenodd" clip-rule="evenodd" d="M2576.12 2242.75L2509.09 2270.37L2576.18 2299.18L2531.87 2374.16L2472.96 2326.29L2483.81 2402.44H2395.36L2406.28 2326.29L2347.29 2374.16L2302.99 2299.18L2370.15 2270.37L2303.05 2242.75L2347.23 2164.58L2405.66 2213.03L2392.2 2138.11H2483.81L2473 2213.51L2531.93 2164.58L2576.12 2242.75ZM2465.79 2226.4L2477.68 2143.42H2398.55L2413.46 2226.4L2348.73 2172.73L2310.63 2240.13L2383.86 2270.27L2310.63 2301.68L2348.73 2366.15L2413.46 2313.61L2401.48 2397.13H2477.68L2465.79 2313.61L2530.44 2366.15L2568.53 2301.68L2495.39 2270.27L2568.53 2240.13L2530.44 2172.73L2465.79 2226.4Z" fill="#35E214"/>
<path fill-rule="evenodd" clip-rule="evenodd" d="M2466.27 2710.42L2438.65 2643.39L2409.84 2710.48L2334.86 2666.17L2382.74 2607.26L2306.58 2618.11V2529.66L2382.74 2540.58L2334.86 2481.6L2409.85 2437.29L2438.65 2504.45L2466.27 2437.35L2544.44 2481.53L2495.99 2539.96L2570.92 2526.5V2618.11L2495.51 2607.3L2544.44 2666.23L2466.27 2710.42ZM2482.62 2600.09L2565.6 2611.98V2532.86L2482.62 2547.76L2536.3 2483.03L2468.89 2444.93L2438.75 2518.16L2407.35 2444.93L2342.87 2483.03L2395.41 2547.76L2311.9 2535.79V2611.98L2395.41 2600.09L2342.87 2664.74L2407.35 2702.84L2438.75 2629.69L2468.89 2702.84L2536.3 2664.74L2482.62 2600.09Z" fill="#35E214"/>
<path fill-rule="evenodd" clip-rule="evenodd" d="M2305.43 2905.02L2372.46 2877.4L2305.37 2848.59L2349.68 2773.6L2408.59 2821.48L2397.74 2745.33H2486.19L2475.27 2821.48L2534.25 2773.61L2578.56 2848.59L2511.4 2877.4L2578.5 2905.01L2534.31 2983.19L2475.89 2934.73L2489.35 3009.66H2397.74L2408.55 2934.26L2349.62 2983.19L2305.43 2905.02ZM2415.76 2921.37L2403.86 3004.35H2482.99L2468.09 2921.37L2532.82 2975.04L2570.92 2907.64L2497.69 2877.5L2570.92 2846.09L2532.82 2781.62L2468.09 2834.15L2480.06 2750.64H2403.86L2415.76 2834.15L2351.11 2781.62L2313.01 2846.09L2386.16 2877.5L2313.01 2907.64L2351.11 2975.04L2415.76 2921.37Z" fill="#35E214"/>
<path fill-rule="evenodd" clip-rule="evenodd" d="M2744.62 0.0649288L2772.24 67.0964L2801.04 0.00172759L2876.03 44.3112L2828.15 103.224L2904.3 92.3776V180.826L2828.15 169.905L2876.02 228.888L2801.04 273.197L2772.24 206.033L2744.62 273.134L2666.45 228.95L2714.9 170.52L2639.97 183.98V92.3721L2715.37 103.18L2666.44 44.2502L2744.62 0.0649288ZM2728.27 110.395L2645.28 98.4997V177.629L2728.27 162.722L2674.59 227.451L2742 265.55L2772.14 192.321L2803.54 265.55L2868.02 227.451L2815.48 162.722L2898.99 174.698V98.4997L2815.48 110.395L2868.02 45.747L2803.54 7.64784L2772.14 80.7953L2742 7.64784L2674.59 45.747L2728.27 110.395Z" fill="#35E214"/>
<path fill-rule="evenodd" clip-rule="evenodd" d="M2800.92 578.842L2773.3 511.81L2744.49 578.905L2669.51 534.596L2717.39 475.683L2641.23 486.529V398.081L2717.39 409.001L2669.51 350.018L2744.5 305.709L2773.3 372.874L2800.92 305.773L2879.09 349.957L2830.64 408.387L2905.57 394.927V486.535L2830.16 475.727L2879.09 534.657L2800.92 578.842ZM2817.27 468.512L2900.25 480.407V401.278L2817.27 416.185L2870.95 351.456L2803.54 313.357L2773.4 386.586L2742 313.357L2677.52 351.456L2730.06 416.185L2646.55 404.209V480.407L2730.06 468.512L2677.52 533.16L2742 571.259L2773.4 498.111L2803.54 571.259L2870.95 533.16L2817.27 468.512Z" fill="#35E214"/>
<path fill-rule="evenodd" clip-rule="evenodd" d="M2905.46 718.4L2838.43 746.021L2905.52 774.826L2861.21 849.812L2802.3 801.934L2813.14 878.086H2724.7L2735.62 801.934L2676.63 849.808L2632.32 774.824L2699.49 746.021L2632.39 718.402L2676.57 640.23L2735 688.682L2721.54 613.754H2813.15L2802.34 689.155L2861.27 640.226L2905.46 718.4ZM2795.13 702.05L2807.02 619.066H2727.89L2742.8 702.05L2678.07 648.373L2639.97 715.78L2713.2 745.92L2639.97 777.324L2678.07 841.8L2742.8 789.262L2730.82 872.774H2807.02L2795.13 789.262L2859.77 841.8L2897.87 777.324L2824.73 745.92L2897.87 715.78L2859.77 648.373L2795.13 702.05Z" fill="#35E214"/>
<path fill-rule="evenodd" clip-rule="evenodd" d="M2905.46 1019.91L2838.43 1047.53L2905.52 1076.34L2861.21 1151.33L2802.3 1103.45L2813.14 1179.6H2724.7L2735.62 1103.45L2676.63 1151.32L2632.32 1076.34L2699.49 1047.53L2632.39 1019.92L2676.57 941.743L2735 990.196L2721.54 915.268H2813.15L2802.34 990.669L2861.27 941.74L2905.46 1019.91ZM2795.13 1003.56L2807.02 920.58H2727.89L2742.8 1003.56L2678.07 949.887L2639.97 1017.29L2713.2 1047.43L2639.97 1078.84L2678.07 1143.31L2742.8 1090.78L2730.82 1174.29H2807.02L2795.13 1090.78L2859.77 1143.31L2897.87 1078.84L2824.73 1047.43L2897.87 1017.29L2859.77 949.887L2795.13 1003.56Z" fill="#35E214"/>
<path fill-rule="evenodd" clip-rule="evenodd" d="M2744.62 1214.51L2772.24 1281.55L2801.04 1214.45L2876.03 1258.76L2828.15 1317.67L2904.3 1306.83V1395.28L2828.15 1384.35L2876.02 1443.34L2801.04 1487.65L2772.24 1420.48L2744.62 1487.58L2666.45 1443.4L2714.9 1384.97L2639.97 1398.43V1306.82L2715.37 1317.63L2666.44 1258.7L2744.62 1214.51ZM2728.27 1324.84L2645.28 1312.95V1392.08L2728.27 1377.17L2674.59 1441.9L2742 1480L2772.14 1406.77L2803.54 1480L2868.02 1441.9L2815.48 1377.17L2898.99 1389.15V1312.95L2815.48 1324.84L2868.02 1260.2L2803.54 1222.1L2772.14 1295.25L2742 1222.1L2674.59 1260.2L2728.27 1324.84Z" fill="#35E214"/>
<path fill-rule="evenodd" clip-rule="evenodd" d="M2800.92 1793.29L2773.3 1726.26L2744.49 1793.35L2669.51 1749.05L2717.39 1690.13L2641.23 1700.98V1612.53L2717.39 1623.45L2669.51 1564.47L2744.5 1520.16L2773.3 1587.32L2800.92 1520.22L2879.09 1564.41L2830.64 1622.84L2905.57 1609.38V1700.98L2830.16 1690.18L2879.09 1749.11L2800.92 1793.29ZM2817.27 1682.96L2900.25 1694.86V1615.73L2817.27 1630.63L2870.95 1565.91L2803.54 1527.81L2773.4 1601.04L2742 1527.81L2677.52 1565.91L2730.06 1630.63L2646.55 1618.66V1694.86L2730.06 1682.96L2677.52 1747.61L2742 1785.71L2773.4 1712.56L2803.54 1785.71L2870.95 1747.61L2817.27 1682.96Z" fill="#35E214"/>
<path fill-rule="evenodd" clip-rule="evenodd" d="M2744.62 1825.93L2772.24 1892.97L2801.04 1825.87L2876.03 1870.18L2828.15 1929.09L2904.3 1918.25V2006.7L2828.15 1995.77L2876.02 2054.76L2801.04 2099.07L2772.24 2031.9L2744.62 2099L2666.45 2054.82L2714.9 1996.39L2639.97 2009.85V1918.24L2715.37 1929.05L2666.44 1870.12L2744.62 1825.93ZM2728.27 1936.26L2645.28 1924.37V2003.5L2728.27 1988.59L2674.59 2053.32L2742 2091.42L2772.14 2018.19L2803.54 2091.42L2868.02 2053.32L2815.48 1988.59L2898.99 2000.57V1924.37L2815.48 1936.26L2868.02 1871.62L2803.54 1833.52L2772.14 1906.66L2742 1833.52L2674.59 1871.62L2728.27 1936.26Z" fill="#35E214"/>
<path fill-rule="evenodd" clip-rule="evenodd" d="M2744.62 2131.64L2772.24 2198.67L2801.04 2131.58L2876.03 2175.89L2828.15 2234.8L2904.3 2223.96V2312.4L2828.15 2301.48L2876.02 2360.47L2801.04 2404.78L2772.24 2337.61L2744.62 2404.71L2666.45 2360.53L2714.9 2302.1L2639.97 2315.56V2223.95L2715.37 2234.76L2666.44 2175.83L2744.62 2131.64ZM2728.27 2241.97L2645.28 2230.08V2309.21L2728.27 2294.3L2674.59 2359.03L2742 2397.13L2772.14 2323.9L2803.54 2397.13L2868.02 2359.03L2815.48 2294.3L2898.99 2306.28V2230.08L2815.48 2241.97L2868.02 2177.33L2803.54 2139.23L2772.14 2212.37L2742 2139.23L2674.59 2177.33L2728.27 2241.97Z" fill="#35E214"/>
<path fill-rule="evenodd" clip-rule="evenodd" d="M2905.46 2544.27L2838.43 2571.89L2905.52 2600.69L2861.21 2675.68L2802.3 2627.8L2813.14 2703.95H2724.7L2735.62 2627.8L2676.63 2675.68L2632.32 2600.69L2699.49 2571.89L2632.39 2544.27L2676.57 2466.1L2735 2514.55L2721.54 2439.62H2813.15L2802.34 2515.02L2861.27 2466.09L2905.46 2544.27ZM2795.13 2527.92L2807.02 2444.93H2727.89L2742.8 2527.92L2678.07 2474.24L2639.97 2541.65L2713.2 2571.79L2639.97 2603.19L2678.07 2667.67L2742.8 2615.13L2730.82 2698.64H2807.02L2795.13 2615.13L2859.77 2667.67L2897.87 2603.19L2824.73 2571.79L2897.87 2541.65L2859.77 2474.24L2795.13 2527.92Z" fill="#35E214"/>
<path fill-rule="evenodd" clip-rule="evenodd" d="M2744.62 2738.87L2772.24 2805.9L2801.04 2738.8L2876.03 2783.11L2828.15 2842.03L2904.3 2831.18V2919.63L2828.15 2908.71L2876.02 2967.69L2801.04 3012L2772.24 2944.84L2744.62 3011.94L2666.45 2967.75L2714.9 2909.32L2639.97 2922.78V2831.17L2715.37 2841.98L2666.44 2783.05L2744.62 2738.87ZM2728.27 2849.2L2645.28 2837.3V2916.43L2728.27 2901.52L2674.59 2966.25L2742 3004.35L2772.14 2931.12L2803.54 3004.35L2868.02 2966.25L2815.48 2901.52L2898.99 2913.5V2837.3L2815.48 2849.2L2868.02 2784.55L2803.54 2746.45L2772.14 2819.6L2742 2746.45L2674.59 2784.55L2728.27 2849.2Z" fill="#35E214"/>
<path fill-rule="evenodd" clip-rule="evenodd" d="M3234.79 106.982L3167.76 134.602L3234.86 163.408L3190.55 238.393L3131.64 190.516L3142.48 266.667H3054.03L3064.95 190.515L3005.97 238.39L2961.66 163.406L3028.83 134.602L2961.73 106.984L3005.91 28.8113L3064.34 77.264L3050.88 2.33594H3142.49L3131.68 77.737L3190.61 28.8078L3234.79 106.982ZM3124.46 90.6314L3136.36 7.64784H3057.23L3072.14 90.6314L3007.41 36.9549L2969.31 104.361L3042.54 134.502L2969.31 165.906L3007.41 230.381L3072.14 177.843L3060.16 261.356H3136.36L3124.46 177.843L3189.11 230.381L3227.21 165.906L3154.06 134.502L3227.21 104.361L3189.11 36.9549L3124.46 90.6314Z" fill="#35E214"/>
<path fill-rule="evenodd" clip-rule="evenodd" d="M2964.1 463.537L3031.14 435.917L2964.04 407.111L3008.35 332.126L3067.26 380.003L3056.42 303.852H3144.87L3133.95 380.004L3192.93 332.129L3237.24 407.113L3170.07 435.917L3237.17 463.535L3192.99 541.708L3134.56 493.255L3148.02 568.183H3056.41L3067.22 492.782L3008.29 541.711L2964.1 463.537ZM3074.43 479.888L3062.54 562.871H3141.67L3126.76 479.888L3191.49 533.564L3229.59 466.158L3156.36 436.017L3229.59 404.613L3191.49 340.138L3126.76 392.676L3138.74 309.164H3062.54L3074.43 392.676L3009.79 340.138L2971.69 404.613L3044.84 436.017L2971.69 466.158L3009.79 533.564L3074.43 479.888Z" fill="#35E214"/>
<path fill-rule="evenodd" clip-rule="evenodd" d="M3234.79 710.012L3167.76 737.633L3234.86 766.438L3190.55 841.423L3131.64 793.546L3142.48 869.698H3054.03L3064.95 793.546L3005.97 841.42L2961.66 766.436L3028.83 737.633L2961.73 710.014L3005.91 631.842L3064.34 680.294L3050.88 605.366H3142.49L3131.68 680.767L3190.61 631.838L3234.79 710.012ZM3124.46 693.662L3136.36 610.678H3057.23L3072.14 693.662L3007.41 639.985L2969.31 707.391L3042.54 737.532L2969.31 768.936L3007.41 833.412L3072.14 780.874L3060.16 864.386H3136.36L3124.46 780.874L3189.11 833.412L3227.21 768.936L3154.06 737.532L3227.21 707.391L3189.11 639.985L3124.46 693.662Z" fill="#35E214"/>
<path fill-rule="evenodd" clip-rule="evenodd" d="M2964.1 1066.57L3031.14 1038.95L2964.04 1010.14L3008.35 935.155L3067.26 983.033L3056.42 906.881H3144.87L3133.95 983.033L3192.93 935.159L3237.24 1010.14L3170.07 1038.95L3237.17 1066.56L3192.99 1144.74L3134.56 1096.28L3148.02 1171.21H3056.41L3067.22 1095.81L3008.29 1144.74L2964.1 1066.57ZM3074.43 1082.92L3062.54 1165.9H3141.67L3126.76 1082.92L3191.49 1136.59L3229.59 1069.19L3156.36 1039.05L3229.59 1007.64L3191.49 943.167L3126.76 995.705L3138.74 912.193H3062.54L3074.43 995.705L3009.79 943.167L2971.69 1007.64L3044.84 1039.05L2971.69 1069.19L3009.79 1136.59L3074.43 1082.92Z" fill="#35E214"/>
<path fill-rule="evenodd" clip-rule="evenodd" d="M2964.1 1368.08L3031.14 1340.46L2964.04 1311.66L3008.35 1236.67L3067.26 1284.55L3056.42 1208.4H3144.87L3133.95 1284.55L3192.93 1236.67L3237.24 1311.66L3170.07 1340.46L3237.17 1368.08L3192.99 1446.25L3134.56 1397.8L3148.02 1472.73H3056.41L3067.22 1397.33L3008.29 1446.26L2964.1 1368.08ZM3074.43 1384.43L3062.54 1467.42H3141.67L3126.76 1384.43L3191.49 1438.11L3229.59 1370.7L3156.36 1340.56L3229.59 1309.16L3191.49 1244.68L3126.76 1297.22L3138.74 1213.71H3062.54L3074.43 1297.22L3009.79 1244.68L2971.69 1309.16L3044.84 1340.56L2971.69 1370.7L3009.79 1438.11L3074.43 1384.43Z" fill="#35E214"/>
<path fill-rule="evenodd" clip-rule="evenodd" d="M3234.79 1614.56L3167.76 1642.18L3234.86 1670.98L3190.55 1745.97L3131.64 1698.09L3142.48 1774.24H3054.03L3064.95 1698.09L3005.97 1745.97L2961.66 1670.98L3028.83 1642.18L2961.73 1614.56L3005.91 1536.39L3064.34 1584.84L3050.88 1509.91H3142.49L3131.68 1585.31L3190.61 1536.38L3234.79 1614.56ZM3124.46 1598.21L3136.36 1515.22H3057.23L3072.14 1598.21L3007.41 1544.53L2969.31 1611.94L3042.54 1642.08L2969.31 1673.48L3007.41 1737.96L3072.14 1685.42L3060.16 1768.93H3136.36L3124.46 1685.42L3189.11 1737.96L3227.21 1673.48L3154.06 1642.08L3227.21 1611.94L3189.11 1544.53L3124.46 1598.21Z" fill="#35E214"/>
<path fill-rule="evenodd" clip-rule="evenodd" d="M3124.95 2082.23L3097.33 2015.19L3068.52 2082.29L2993.53 2037.98L3041.41 1979.07L2965.26 1989.91V1901.46L3041.41 1912.38L2993.54 1853.4L3068.52 1809.09L3097.33 1876.26L3124.94 1809.16L3203.12 1853.34L3154.66 1911.77L3229.59 1898.31V1989.92L3154.19 1979.11L3203.12 2038.04L3124.95 2082.23ZM3141.3 1971.9L3224.28 1983.79V1904.66L3141.3 1919.57L3194.97 1854.84L3127.57 1816.74L3097.43 1889.97L3066.02 1816.74L3001.55 1854.84L3054.08 1919.57L2970.57 1907.59V1983.79L3054.08 1971.9L3001.55 2036.54L3066.02 2074.64L3097.43 2001.49L3127.57 2074.64L3194.97 2036.54L3141.3 1971.9Z" fill="#35E214"/>
<path fill-rule="evenodd" clip-rule="evenodd" d="M3068.64 2114.87L3096.26 2181.9L3125.07 2114.8L3200.05 2159.11L3152.18 2218.03L3228.33 2207.18V2295.63L3152.18 2284.71L3200.05 2343.69L3125.07 2388L3096.26 2320.83L3068.64 2387.94L2990.47 2343.75L3038.92 2285.32L2964 2298.78V2207.17L3039.4 2217.98L2990.47 2159.05L3068.64 2114.87ZM3052.29 2225.2L2969.31 2213.3V2292.43L3052.29 2277.52L2998.62 2342.25L3066.02 2380.35L3096.16 2307.12L3127.57 2380.35L3192.04 2342.25L3139.5 2277.52L3223.02 2289.5V2213.3L3139.5 2225.2L3192.04 2160.55L3127.57 2122.45L3096.16 2195.6L3066.02 2122.45L2998.62 2160.55L3052.29 2225.2Z" fill="#35E214"/>
<path fill-rule="evenodd" clip-rule="evenodd" d="M3124.95 2693.64L3097.33 2626.61L3068.52 2693.71L2993.53 2649.4L3041.41 2590.48L2965.26 2601.33V2512.88L3041.41 2523.8L2993.54 2464.82L3068.52 2420.51L3097.33 2487.68L3124.94 2420.57L3203.12 2464.76L3154.66 2523.19L3229.59 2509.73V2601.34L3154.19 2590.53L3203.12 2649.46L3124.95 2693.64ZM3141.3 2583.31L3224.28 2595.21V2516.08L3141.3 2530.99L3194.97 2466.26L3127.57 2428.16L3097.43 2501.39L3066.02 2428.16L3001.55 2466.26L3054.08 2530.99L2970.57 2519.01V2595.21L3054.08 2583.31L3001.55 2647.96L3066.02 2686.06L3097.43 2612.91L3127.57 2686.06L3194.97 2647.96L3141.3 2583.31Z" fill="#35E214"/>
<path fill-rule="evenodd" clip-rule="evenodd" d="M3068.64 2726.29L3096.26 2793.32L3125.07 2726.22L3200.05 2770.53L3152.18 2829.44L3228.33 2818.6V2907.05L3152.18 2896.13L3200.05 2955.11L3125.07 2999.42L3096.26 2932.25L3068.64 2999.35L2990.47 2955.17L3038.92 2896.74L2964 2910.2V2818.59L3039.4 2829.4L2990.47 2770.47L3068.64 2726.29ZM3052.29 2836.62L2969.31 2824.72V2903.85L3052.29 2888.94L2998.62 2953.67L3066.02 2991.77L3096.16 2918.54L3127.57 2991.77L3192.04 2953.67L3139.5 2888.94L3223.02 2900.92V2824.72L3139.5 2836.62L3192.04 2771.97L3127.57 2733.87L3096.16 2807.02L3066.02 2733.87L2998.62 2771.97L3052.29 2836.62Z" fill="#35E214"/>
</svg>
