<svg width="1316" height="276" viewBox="0 0 1316 276" fill="none" xmlns="http://www.w3.org/2000/svg">
<path d="M972.784 0V270.829H908.814V0H972.784Z" fill="#35E214"/>
<path d="M620.717 213.813C620.717 171.746 671.129 150.19 718.063 150.19C755.958 150.19 795.244 164.445 820.624 181.48C820.624 171.05 820.971 165.14 820.971 160.968C820.971 132.46 809.151 121.682 787.248 121.682H691.293L673.562 75.7906H821.667C867.211 85.1775 884.594 116.12 884.941 163.054V271.177H820.624V240.93C797.678 260.052 747.615 273.263 712.501 273.263C672.519 273.263 620.717 256.575 620.717 213.813ZM736.142 181.48C712.501 181.48 684.687 188.433 684.687 212.77C684.687 238.844 715.63 243.364 733.708 243.364C776.123 243.364 812.28 219.028 820.624 213.465V209.988C816.104 206.859 781.338 181.48 736.142 181.48Z" fill="#35E214"/>
<path d="M467.731 275.349C386.104 275.349 326.306 236.411 326.306 175.57C326.306 114.381 397.504 75.0955 469.47 75.0955C535.526 75.0955 597.062 107.428 597.41 176.265C597.41 181.828 596.714 187.738 595.324 192.953C575.854 192.953 417.393 193.648 395.143 193.648C396.186 220.419 430.879 242.669 467.036 242.669C492.068 242.669 507.814 241.598 523.807 224.215L573.87 232.558C556.487 263.5 520.576 275.349 467.731 275.349ZM467.036 109.862C426.359 109.862 393.752 139.761 394.1 168.617L529.615 168.269C529.615 133.85 503.888 109.862 467.036 109.862Z" fill="#35E214"/>
<path d="M58.0597 270.83H0V34.0713H213.891C262.564 34.0713 304.631 52.1497 304.631 103.951C304.631 151.929 269.865 178.004 235.099 179.047H221.192L304.284 270.83H235.794L158.613 179.047H58.0597V270.83ZM213.544 81.0057H58.0597V144.628H212.848C231.274 144.628 247.615 132.112 247.615 111.948C247.615 90.3926 230.927 81.0057 213.544 81.0057Z" fill="#35E214"/>
<path fill-rule="evenodd" clip-rule="evenodd" d="M1019.35 63.2399C1023.66 48.3243 1035.34 37.7655 1050.52 34.9977C1053.95 34.3826 1069.27 34.2801 1150.67 34.3826C1277.52 34.4339 1282.49 34.4851 1285.41 35.4077C1301.4 40.2258 1312.01 51.3997 1315.09 66.5716C1316.27 72.4148 1316.32 173.646 1315.14 178.72C1311.4 194.661 1300.38 206.245 1284.64 210.653C1280.9 211.678 1279.47 211.73 1203.72 212.037C1162.66 212.293 1162.15 212.345 1159.23 213.421C1157.47 214.089 1156.09 214.61 1154.76 215.254C1149.68 217.727 1145.49 222.021 1124.43 243.406C1110.84 257.194 1099.05 268.829 1098.29 269.239C1094.95 270.931 1091.21 269.137 1090.19 265.292C1089.88 264.216 1088.24 256.066 1086.6 247.301C1082.14 224.031 1081.53 221.212 1080.19 218.905C1078.6 216.189 1075.43 213.319 1073.22 212.652C1072.25 212.345 1067.22 211.986 1062 211.883C1051.8 211.576 1047.85 210.858 1041.44 208.193C1030.63 203.631 1022.48 193.841 1019.15 181.54C1018.22 178.105 1018.17 175.235 1018.17 122.595V67.2379L1019.35 63.2399ZM1190.77 125.425L1224.56 111.504L1206.96 80.3705L1177.1 105.162L1182.6 66.8344H1146.05L1152.93 105.162L1123.04 80.3705L1105.44 111.504L1139.26 125.425L1105.44 139.93L1123.04 169.709L1152.93 145.443L1147.4 184.015H1182.6L1177.1 145.443L1206.96 169.709L1224.56 139.93L1190.77 125.425Z" fill="#35E214"/>
</svg>
