<svg width="3012" height="3012" viewBox="0 0 3012 3012" fill="none" xmlns="http://www.w3.org/2000/svg">
<path d="M-113.43 159.089L-39.8983 128.79L-113.43 97.2212L-75.1306 32.4072L-10.1437 85.221L-22.101 1.27048L54.4974 1.27048L42.4582 85.221L107.527 32.4072L145.826 97.2212L72.2128 128.79L145.826 159.089L107.527 226.849L42.4582 172.891L57.4435 256.31H-22.101L-10.1437 172.891L-75.1306 226.849L-113.43 159.089Z" fill="#35E214"/>
<path d="M-16.2087 304.369L14.0901 377.9L45.6592 304.369L110.473 342.668L57.6594 407.655L141.61 395.697V472.296L57.6594 460.257L110.473 525.325L45.6592 563.625L14.0901 490.011L-16.2087 563.625L-83.9688 525.325L-30.0105 460.257L-113.43 475.242L-113.43 395.697L-30.0105 407.655L-83.9688 342.668L-16.2087 304.369Z" fill="#35E214"/>
<path d="M145.826 708.904L72.2948 739.202L145.826 770.772L107.527 835.586L42.5402 782.772L54.4975 866.722H-22.1009L-10.0617 782.772L-75.1305 835.586L-113.43 770.772L-39.8164 739.202L-113.43 708.904L-75.1305 641.144L-10.0617 695.102L-25.047 611.683H54.4975L42.5402 695.102L107.527 641.144L145.826 708.904Z" fill="#35E214"/>
<path d="M145.826 1012L72.2948 1042.3L145.826 1073.87L107.527 1138.68L42.5402 1085.87L54.4975 1169.82H-22.1009L-10.0617 1085.87L-75.1305 1138.68L-113.43 1073.87L-39.8164 1042.3L-113.43 1012L-75.1305 944.242L-10.0617 998.2L-25.047 914.781H54.4975L42.5402 998.2L107.527 944.242L145.826 1012Z" fill="#35E214"/>
<path d="M145.826 1315.1L72.2948 1345.4L145.826 1376.97L107.527 1441.78L42.5402 1388.97L54.4975 1472.92H-22.1009L-10.0617 1388.97L-75.1305 1441.78L-113.43 1376.97L-39.8164 1345.4L-113.43 1315.1L-75.1305 1247.34L-10.0617 1301.3L-25.047 1217.88H54.4975L42.5402 1301.3L107.527 1247.34L145.826 1315.1Z" fill="#35E214"/>
<path d="M-113.43 1678.8L-39.8983 1648.5L-113.43 1616.93L-75.1306 1552.11L-10.1437 1604.93L-22.101 1520.98H54.4974L42.4582 1604.93L107.527 1552.11L145.826 1616.93L72.2128 1648.5L145.826 1678.8L107.527 1746.56L42.4582 1692.6L57.4435 1776.02H-22.101L-10.1437 1692.6L-75.1306 1746.56L-113.43 1678.8Z" fill="#35E214"/>
<path d="M-113.43 1981.89L-39.8983 1951.6L-113.43 1920.03L-75.1306 1855.21L-10.1437 1908.03L-22.101 1824.08H54.4974L42.4582 1908.03L107.527 1855.21L145.826 1920.03L72.2128 1951.6L145.826 1981.89L107.527 2049.65L42.4582 1995.7L57.4435 2079.12H-22.101L-10.1437 1995.7L-75.1306 2049.65L-113.43 1981.89Z" fill="#35E214"/>
<path d="M45.6584 2386.43L15.3596 2312.9L-16.2095 2386.43L-81.0235 2348.13L-28.2097 2283.14L-112.16 2295.1V2218.5L-28.2097 2230.54L-81.0235 2165.47L-16.2095 2127.17L15.3596 2200.79L45.6584 2127.17L113.418 2165.47L59.4602 2230.54L142.879 2215.56V2295.1L59.4602 2283.14L113.418 2348.13L45.6584 2386.43Z" fill="#35E214"/>
<path d="M145.826 2531.71L72.2948 2562.01L145.826 2593.58L107.527 2658.39L42.5402 2605.58L54.4975 2689.53H-22.1009L-10.0617 2605.58L-75.1305 2658.39L-113.43 2593.58L-39.8164 2562.01L-113.43 2531.71L-75.1305 2463.95L-10.0617 2517.91L-25.047 2434.49H54.4975L42.5402 2517.91L107.527 2463.95L145.826 2531.71Z" fill="#35E214"/>
<path d="M-16.2087 2737.59L14.0901 2811.12L45.6592 2737.59L110.473 2775.89L57.6594 2840.87L141.61 2828.92V2905.51L57.6594 2893.48L110.473 2958.54L45.6592 2996.84L14.0901 2923.23L-16.2087 2996.84L-83.9688 2958.54L-30.0105 2893.48L-113.43 2908.46L-113.43 2828.92L-30.0105 2840.87L-83.9688 2775.89L-16.2087 2737.59Z" fill="#35E214"/>
<path d="M217.637 159.089L291.168 128.79L217.637 97.2212L255.936 32.4072L320.923 85.221L308.965 1.27048L385.564 1.27048L373.525 85.221L438.593 32.4072L476.893 97.2212L403.279 128.79L476.893 159.089L438.593 226.849L373.525 172.891L388.51 256.31H308.965L320.923 172.891L255.936 226.849L217.637 159.089Z" fill="#35E214"/>
<path d="M217.637 462.188L291.168 431.889L217.637 400.32L255.936 335.506L320.923 388.32L308.965 304.369H385.564L373.525 388.32L438.593 335.506L476.893 400.32L403.279 431.889L476.893 462.188L438.593 529.948L373.525 475.989L388.51 559.409H308.965L320.923 475.989L255.936 529.948L217.637 462.188Z" fill="#35E214"/>
<path d="M217.637 765.286L291.168 734.988L217.637 703.418L255.936 638.604L320.923 691.418L308.965 607.468H385.564L373.525 691.418L438.593 638.604L476.893 703.418L403.279 734.988L476.893 765.286L438.593 833.046L373.525 779.088L388.51 862.507H308.965L320.923 779.088L255.936 833.046L217.637 765.286Z" fill="#35E214"/>
<path d="M217.637 1068.38L291.168 1038.09L217.637 1006.52L255.936 941.702L320.923 994.516L308.965 910.565H385.564L373.525 994.516L438.593 941.702L476.893 1006.52L403.279 1038.09L476.893 1068.38L438.593 1136.14L373.525 1082.19L388.51 1165.6H308.965L320.923 1082.19L255.936 1136.14L217.637 1068.38Z" fill="#35E214"/>
<path d="M312.466 1213.66L342.765 1287.19L374.334 1213.66L439.148 1251.96L386.334 1316.95L470.285 1304.99V1381.59L386.334 1369.55L439.148 1434.62L374.334 1472.92L342.765 1399.31L312.466 1472.92L244.706 1434.62L298.664 1369.55L215.245 1384.54V1304.99L298.664 1316.95L244.706 1251.96L312.466 1213.66Z" fill="#35E214"/>
<path d="M374.333 1780.23L344.034 1706.7L312.465 1780.23L247.651 1741.93L300.465 1676.95L216.514 1688.9V1612.31L300.465 1624.34L247.651 1559.28L312.465 1520.98L344.034 1594.59L374.333 1520.98L442.093 1559.28L388.135 1624.34L471.554 1609.36V1688.9L388.135 1676.95L442.093 1741.93L374.333 1780.23Z" fill="#35E214"/>
<path d="M474.501 1925.51L400.97 1955.81L474.501 1987.38L436.202 2052.19L371.215 1999.38L383.172 2083.33H306.574L318.613 1999.38L253.544 2052.19L215.245 1987.38L288.858 1955.81L215.245 1925.51L253.544 1857.75L318.613 1911.71L303.628 1828.29H383.172L371.215 1911.71L436.202 1857.75L474.501 1925.51Z" fill="#35E214"/>
<path d="M374.333 2390.65L344.034 2317.12L312.465 2390.65L247.651 2352.35L300.465 2287.36L216.514 2299.32V2222.72L300.465 2234.76L247.651 2169.69L312.465 2131.39L344.034 2205L374.333 2131.39L442.093 2169.69L388.135 2234.76L471.554 2219.77V2299.32L388.135 2287.36L442.093 2352.35L374.333 2390.65Z" fill="#35E214"/>
<path d="M312.466 2438.7L342.765 2512.23L374.334 2438.7L439.148 2477L386.334 2541.99L470.285 2530.03V2606.63L386.334 2594.59L439.148 2659.66L374.334 2697.96L342.765 2624.35L312.466 2697.96L244.706 2659.66L298.664 2594.59L215.245 2609.58V2530.03L298.664 2541.99L244.706 2477L312.466 2438.7Z" fill="#35E214"/>
<path d="M474.501 2843.24L400.97 2873.54L474.501 2905.11L436.202 2969.92L371.215 2917.11L383.172 3001.06H306.574L318.613 2917.11L253.544 2969.92L215.245 2905.11L288.858 2873.54L215.245 2843.24L253.544 2775.48L318.613 2829.44L303.628 2746.02H383.172L371.215 2829.44L436.202 2775.48L474.501 2843.24Z" fill="#35E214"/>
<path d="M705.4 259.256L675.101 185.724L643.532 259.256L578.718 220.957L631.532 155.97L547.582 167.927V91.3288L631.532 103.368L578.718 38.2992L643.532 0L675.101 73.6133L705.4 0L773.16 38.2992L719.202 103.368L802.621 88.3827V167.927L719.202 155.97L773.16 220.957L705.4 259.256Z" fill="#35E214"/>
<path d="M805.568 404.535L732.036 434.834L805.568 466.403L767.268 531.217L702.281 478.404L714.239 562.354H637.64L649.679 478.404L584.611 531.217L546.312 466.403L619.925 434.834L546.312 404.535L584.611 336.775L649.679 390.734L634.694 307.314H714.239L702.281 390.734L767.268 336.775L805.568 404.535Z" fill="#35E214"/>
<path d="M805.568 707.634L732.036 737.933L805.568 769.502L767.268 834.316L702.281 781.502L714.239 865.453H637.64L649.679 781.502L584.611 834.316L546.312 769.502L619.925 737.933L546.312 707.634L584.611 639.874L649.679 693.832L634.694 610.413H714.239L702.281 693.832L767.268 639.874L805.568 707.634Z" fill="#35E214"/>
<path d="M548.705 1071.33L622.236 1041.03L548.705 1009.46L587.004 944.648L651.991 997.462L640.034 913.512H716.632L704.593 997.462L769.662 944.648L807.961 1009.46L734.348 1041.03L807.961 1071.33L769.662 1139.09L704.593 1085.13L719.578 1168.55H640.034L651.991 1085.13L587.004 1139.09L548.705 1071.33Z" fill="#35E214"/>
<path d="M548.705 1374.43L622.236 1344.13L548.705 1312.56L587.004 1247.75L651.991 1300.56L640.034 1216.61H716.632L704.593 1300.56L769.662 1247.75L807.961 1312.56L734.348 1344.13L807.961 1374.43L769.662 1442.19L704.593 1388.23L719.578 1471.65H640.034L651.991 1388.23L587.004 1442.19L548.705 1374.43Z" fill="#35E214"/>
<path d="M805.568 1616.93L732.036 1647.23L805.568 1678.8L767.268 1743.61L702.281 1690.8L714.239 1774.75H637.64L649.679 1690.8L584.611 1743.61L546.312 1678.8L619.925 1647.23L546.312 1616.93L584.611 1549.17L649.679 1603.13L634.694 1519.71H714.239L702.281 1603.13L767.268 1549.17L805.568 1616.93Z" fill="#35E214"/>
<path d="M548.705 1980.63L622.236 1950.33L548.705 1918.76L587.004 1853.94L651.991 1906.76L640.034 1822.81H716.632L704.593 1906.76L769.662 1853.94L807.961 1918.76L734.348 1950.33L807.961 1980.63L769.662 2048.39L704.593 1994.43L719.578 2077.85H640.034L651.991 1994.43L587.004 2048.39L548.705 1980.63Z" fill="#35E214"/>
<path d="M643.533 2125.9L673.831 2199.44L705.4 2125.9L770.214 2164.2L717.401 2229.19L801.351 2217.23V2293.83L717.401 2281.79L770.214 2346.86L705.4 2385.16L673.831 2311.55L643.533 2385.16L575.772 2346.86L629.731 2281.79L546.312 2296.78V2217.23L629.731 2229.19L575.772 2164.2L643.533 2125.9Z" fill="#35E214"/>
<path d="M705.4 2692.47L675.101 2618.94L643.532 2692.47L578.718 2654.18L631.532 2589.19L547.582 2601.15V2524.55L631.532 2536.59L578.718 2471.52L643.532 2433.22L675.101 2506.83L705.4 2433.22L773.16 2471.52L719.202 2536.59L802.621 2521.6V2601.15L719.202 2589.19L773.16 2654.18L705.4 2692.47Z" fill="#35E214"/>
<path d="M643.533 2740.53L673.831 2814.06L705.4 2740.53L770.214 2778.83L717.401 2843.82L801.351 2831.86V2908.46L717.401 2896.42L770.214 2961.49L705.4 2999.79L673.831 2926.18L643.533 2999.79L575.772 2961.49L629.731 2896.42L546.312 2911.41V2831.86L629.731 2843.82L575.772 2778.83L643.533 2740.53Z" fill="#35E214"/>
<path d="M879.771 159.089L953.303 128.79L879.771 97.2212L918.071 32.4072L983.057 85.221L971.1 1.27048L1047.7 1.27048L1035.66 85.221L1100.73 32.4072L1139.03 97.2212L1065.41 128.79L1139.03 159.089L1100.73 226.849L1035.66 172.891L1050.64 256.31H971.1L983.057 172.891L918.071 226.849L879.771 159.089Z" fill="#35E214"/>
<path d="M974.598 304.369L1004.9 377.9L1036.47 304.369L1101.28 342.668L1048.47 407.655L1132.42 395.697V472.296L1048.47 460.257L1101.28 525.325L1036.47 563.625L1004.9 490.011L974.598 563.625L906.838 525.325L960.796 460.257L877.377 475.242V395.697L960.796 407.655L906.838 342.668L974.598 304.369Z" fill="#35E214"/>
<path d="M1136.63 708.904L1063.1 739.202L1136.63 770.772L1098.33 835.586L1033.35 782.772L1045.3 866.722H968.706L980.745 782.772L915.676 835.586L877.377 770.772L950.99 739.202L877.377 708.904L915.676 641.144L980.745 695.102L965.76 611.683H1045.3L1033.35 695.102L1098.33 641.144L1136.63 708.904Z" fill="#35E214"/>
<path d="M1036.47 1174.04L1006.17 1100.51L974.6 1174.04L909.786 1135.74L962.599 1070.75L878.649 1082.71V1006.11L962.599 1018.15L909.786 953.08L974.6 914.781L1006.17 988.395L1036.47 914.781L1104.23 953.08L1050.27 1018.15L1133.69 1003.16V1082.71L1050.27 1070.75L1104.23 1135.74L1036.47 1174.04Z" fill="#35E214"/>
<path d="M879.771 1379.91L953.303 1349.62L879.771 1318.05L918.071 1253.23L983.057 1306.05L971.1 1222.1H1047.7L1035.66 1306.05L1100.73 1253.23L1139.03 1318.05L1065.41 1349.62L1139.03 1379.91L1100.73 1447.67L1035.66 1393.72L1050.64 1477.14H971.1L983.057 1393.72L918.071 1447.67L879.771 1379.91Z" fill="#35E214"/>
<path d="M974.598 1525.19L1004.9 1598.73L1036.47 1525.19L1101.28 1563.49L1048.47 1628.48L1132.42 1616.52V1693.12L1048.47 1681.08L1101.28 1746.15L1036.47 1784.45L1004.9 1710.84L974.598 1784.45L906.838 1746.15L960.796 1681.08L877.377 1696.07V1616.52L960.796 1628.48L906.838 1563.49L974.598 1525.19Z" fill="#35E214"/>
<path d="M974.598 1832.51L1004.9 1906.04L1036.47 1832.51L1101.28 1870.81L1048.47 1935.79L1132.42 1923.84V2000.43L1048.47 1988.4L1101.28 2053.46L1036.47 2091.76L1004.9 2018.15L974.598 2091.76L906.838 2053.46L960.796 1988.4L877.377 2003.38V1923.84L960.796 1935.79L906.838 1870.81L974.598 1832.51Z" fill="#35E214"/>
<path d="M879.771 2297.64L953.303 2267.34L879.771 2235.77L918.071 2170.96L983.057 2223.77L971.1 2139.82H1047.7L1035.66 2223.77L1100.73 2170.96L1139.03 2235.77L1065.41 2267.34L1139.03 2297.64L1100.73 2365.4L1035.66 2311.44L1050.64 2394.86H971.1L983.057 2311.44L918.071 2365.4L879.771 2297.64Z" fill="#35E214"/>
<path d="M974.598 2442.92L1004.9 2516.45L1036.47 2442.92L1101.28 2481.22L1048.47 2546.21L1132.42 2534.25V2610.85L1048.47 2598.81L1101.28 2663.88L1036.47 2702.18L1004.9 2628.56L974.598 2702.18L906.838 2663.88L960.796 2598.81L877.377 2613.79V2534.25L960.796 2546.21L906.838 2481.22L974.598 2442.92Z" fill="#35E214"/>
<path d="M1136.63 2847.46L1063.1 2877.76L1136.63 2909.33L1098.33 2974.14L1033.35 2921.33L1045.3 3005.28H968.706L980.745 2921.33L915.676 2974.14L877.377 2909.33L950.99 2877.76L877.377 2847.46L915.676 2779.7L980.745 2833.66L965.76 2750.24H1045.3L1033.35 2833.66L1098.33 2779.7L1136.63 2847.46Z" fill="#35E214"/>
<path d="M1372.87 259.256L1342.57 185.724L1311.01 259.256L1246.19 220.957L1299.01 155.97L1215.06 167.927V91.3288L1299.01 103.368L1246.19 38.2992L1311.01 0L1342.57 73.6133L1372.87 0L1440.63 38.2992L1386.68 103.368L1470.09 88.3827V167.927L1386.68 155.97L1440.63 220.957L1372.87 259.256Z" fill="#35E214"/>
<path d="M1210.84 465.134L1284.37 434.835L1210.84 403.266L1249.14 338.452L1314.12 391.265L1302.17 307.315H1378.77L1366.73 391.265L1431.8 338.452L1470.09 403.266L1396.48 434.835L1470.09 465.134L1431.8 532.894L1366.73 478.935L1381.71 562.354H1302.17L1314.12 478.935L1249.14 532.894L1210.84 465.134Z" fill="#35E214"/>
<path d="M1467.7 707.634L1394.17 737.933L1467.7 769.502L1429.4 834.316L1364.42 781.502L1376.37 865.453H1299.77L1311.81 781.502L1246.74 834.316L1208.45 769.502L1282.06 737.933L1208.45 707.634L1246.74 639.874L1311.81 693.832L1296.83 610.413H1376.37L1364.42 693.832L1429.4 639.874L1467.7 707.634Z" fill="#35E214"/>
<path d="M1311.01 913.512L1341.3 987.044L1372.87 913.512L1437.69 951.811L1384.87 1016.8L1468.82 1004.84V1081.44L1384.87 1069.4L1437.69 1134.47L1372.87 1172.77L1341.3 1099.15L1311.01 1172.77L1243.25 1134.47L1297.2 1069.4L1213.78 1084.39V1004.84L1297.2 1016.8L1243.25 951.811L1311.01 913.512Z" fill="#35E214"/>
<path d="M1467.7 1318.05L1394.17 1348.35L1467.7 1379.91L1429.4 1444.73L1364.42 1391.91L1376.37 1475.87H1299.77L1311.81 1391.91L1246.74 1444.73L1208.45 1379.91L1282.06 1348.35L1208.45 1318.05L1246.74 1250.29L1311.81 1304.24L1296.83 1220.83H1376.37L1364.42 1304.24L1429.4 1250.29L1467.7 1318.05Z" fill="#35E214"/>
<path d="M1467.7 1621.14L1394.17 1651.44L1467.7 1683.01L1429.4 1747.83L1364.42 1695.01L1376.37 1778.96H1299.77L1311.81 1695.01L1246.74 1747.83L1208.45 1683.01L1282.06 1651.44L1208.45 1621.14L1246.74 1553.38L1311.81 1607.34L1296.83 1523.92H1376.37L1364.42 1607.34L1429.4 1553.38L1467.7 1621.14Z" fill="#35E214"/>
<path d="M1210.84 1984.84L1284.37 1954.54L1210.84 1922.97L1249.14 1858.16L1314.12 1910.97L1302.17 1827.02H1378.77L1366.73 1910.97L1431.8 1858.16L1470.09 1922.97L1396.48 1954.54L1470.09 1984.84L1431.8 2052.6L1366.73 1998.64L1381.71 2082.06H1302.17L1314.12 1998.64L1249.14 2052.6L1210.84 1984.84Z" fill="#35E214"/>
<path d="M1372.87 2389.38L1342.57 2315.84L1311.01 2389.38L1246.19 2351.08L1299.01 2286.09L1215.06 2298.05V2221.45L1299.01 2233.49L1246.19 2168.42L1311.01 2130.12L1342.57 2203.73L1372.87 2130.12L1440.63 2168.42L1386.68 2233.49L1470.09 2218.5V2298.05L1386.68 2286.09L1440.63 2351.08L1372.87 2389.38Z" fill="#35E214"/>
<path d="M1372.87 2696.69L1342.57 2623.16L1311.01 2696.69L1246.19 2658.39L1299.01 2593.41L1215.06 2605.36V2528.76L1299.01 2540.8L1246.19 2475.73L1311.01 2437.44L1342.57 2511.05L1372.87 2437.44L1440.63 2475.73L1386.68 2540.8L1470.09 2525.82V2605.36L1386.68 2593.41L1440.63 2658.39L1372.87 2696.69Z" fill="#35E214"/>
<path d="M1311.01 2744.75L1341.3 2818.28L1372.87 2744.75L1437.69 2783.05L1384.87 2848.04L1468.82 2836.08V2912.68L1384.87 2900.64L1437.69 2965.71L1372.87 3004L1341.3 2930.39L1311.01 3004L1243.25 2965.71L1297.2 2900.64L1213.78 2915.62V2836.08L1297.2 2848.04L1243.25 2783.05L1311.01 2744.75Z" fill="#35E214"/>
<path d="M1636.73 0.000852441L1667.03 73.5324L1698.6 0.000852441L1763.41 38.3L1710.6 103.287L1794.55 91.3297V167.928L1710.6 155.889L1763.41 220.958L1698.6 259.257L1667.03 185.644L1636.73 259.257L1568.97 220.958L1622.93 155.889L1539.51 170.874V91.3297L1622.93 103.287L1568.97 38.3L1636.73 0.000852441Z" fill="#35E214"/>
<path d="M1798.77 404.535L1725.24 434.834L1798.77 466.403L1760.47 531.217L1695.48 478.404L1707.44 562.354H1630.84L1642.88 478.404L1577.81 531.217L1539.51 466.403L1613.13 434.834L1539.51 404.535L1577.81 336.775L1642.88 390.734L1627.89 307.314H1707.44L1695.48 390.734L1760.47 336.775L1798.77 404.535Z" fill="#35E214"/>
<path d="M1698.6 869.669L1668.3 796.138L1636.73 869.669L1571.92 831.37L1624.73 766.383L1540.78 778.34V701.742L1624.73 713.781L1571.92 648.712L1636.73 610.413L1668.3 684.026L1698.6 610.413L1766.36 648.712L1712.4 713.781L1795.82 698.796V778.34L1712.4 766.383L1766.36 831.37L1698.6 869.669Z" fill="#35E214"/>
<path d="M1636.73 917.727L1667.03 991.259L1698.6 917.727L1763.41 956.027L1710.6 1021.01L1794.55 1009.06V1085.65L1710.6 1073.62L1763.41 1138.68L1698.6 1176.98L1667.03 1103.37L1636.73 1176.98L1568.97 1138.68L1622.93 1073.62L1539.51 1088.6V1009.06L1622.93 1021.01L1568.97 956.027L1636.73 917.727Z" fill="#35E214"/>
<path d="M1636.73 1225.04L1667.03 1298.57L1698.6 1225.04L1763.41 1263.34L1710.6 1328.33L1794.55 1316.37V1392.97L1710.6 1380.93L1763.41 1446L1698.6 1484.3L1667.03 1410.68L1636.73 1484.3L1568.97 1446L1622.93 1380.93L1539.51 1395.91V1316.37L1622.93 1328.33L1568.97 1263.34L1636.73 1225.04Z" fill="#35E214"/>
<path d="M1541.91 1690.17L1615.44 1659.88L1541.91 1628.31L1580.21 1563.49L1645.19 1616.31L1633.23 1532.36H1709.83L1697.79 1616.31L1762.86 1563.49L1801.16 1628.31L1727.55 1659.88L1801.16 1690.17L1762.86 1757.93L1697.79 1703.98L1712.78 1787.4H1633.23L1645.19 1703.98L1580.21 1757.93L1541.91 1690.17Z" fill="#35E214"/>
<path d="M1541.91 1993.27L1615.44 1962.97L1541.91 1931.41L1580.21 1866.59L1645.19 1919.41L1633.23 1835.45H1709.83L1697.79 1919.41L1762.86 1866.59L1801.16 1931.41L1727.55 1962.97L1801.16 1993.27L1762.86 2061.03L1697.79 2007.07L1712.78 2090.49H1633.23L1645.19 2007.07L1580.21 2061.03L1541.91 1993.27Z" fill="#35E214"/>
<path d="M1636.73 2138.55L1667.03 2212.08L1698.6 2138.55L1763.41 2176.85L1710.6 2241.84L1794.55 2229.88V2306.48L1710.6 2294.44L1763.41 2359.51L1698.6 2397.81L1667.03 2324.2L1636.73 2397.81L1568.97 2359.51L1622.93 2294.44L1539.51 2309.43V2229.88L1622.93 2241.84L1568.97 2176.85L1636.73 2138.55Z" fill="#35E214"/>
<path d="M1636.73 2445.87L1667.03 2519.4L1698.6 2445.87L1763.41 2484.17L1710.6 2549.15L1794.55 2537.2V2613.79L1710.6 2601.76L1763.41 2666.82L1698.6 2705.12L1667.03 2631.51L1636.73 2705.12L1568.97 2666.82L1622.93 2601.76L1539.51 2616.74V2537.2L1622.93 2549.15L1568.97 2484.17L1636.73 2445.87Z" fill="#35E214"/>
<path d="M1798.77 2850.4L1725.24 2880.7L1798.77 2912.27L1760.47 2977.08L1695.48 2924.27L1707.44 3008.22H1630.84L1642.88 2924.27L1577.81 2977.08L1539.51 2912.27L1613.13 2880.7L1539.51 2850.4L1577.81 2782.64L1642.88 2836.6L1627.89 2753.18H1707.44L1695.48 2836.6L1760.47 2782.64L1798.77 2850.4Z" fill="#35E214"/>
<path d="M1872.97 159.089L1946.5 128.79L1872.97 97.2212L1911.27 32.4072L1976.26 85.221L1964.3 1.27048L2040.9 1.27048L2028.86 85.221L2093.93 32.4072L2132.23 97.2212L2058.62 128.79L2132.23 159.089L2093.93 226.849L2028.86 172.891L2043.85 256.31H1964.3L1976.26 172.891L1911.27 226.849L1872.97 159.089Z" fill="#35E214"/>
<path d="M2035.01 563.624L2004.71 490.092L1973.14 563.624L1908.33 525.324L1961.14 460.338L1877.19 472.295V395.696L1961.14 407.736L1908.33 342.667L1973.14 304.368L2004.71 377.981L2035.01 304.368L2102.77 342.667L2048.81 407.736L2132.23 392.75V472.295L2048.81 460.338L2102.77 525.324L2035.01 563.624Z" fill="#35E214"/>
<path d="M1872.97 769.502L1946.5 739.203L1872.97 707.634L1911.27 642.82L1976.26 695.634L1964.3 611.683H2040.9L2028.86 695.634L2093.93 642.82L2132.23 707.634L2058.62 739.203L2132.23 769.502L2093.93 837.262L2028.86 783.303L2043.85 866.723H1964.3L1976.26 783.303L1911.27 837.262L1872.97 769.502Z" fill="#35E214"/>
<path d="M2035.01 1174.04L2004.71 1100.51L1973.14 1174.04L1908.33 1135.74L1961.14 1070.75L1877.19 1082.71V1006.11L1961.14 1018.15L1908.33 953.08L1973.14 914.781L2004.71 988.395L2035.01 914.781L2102.77 953.08L2048.81 1018.15L2132.23 1003.16V1082.71L2048.81 1070.75L2102.77 1135.74L2035.01 1174.04Z" fill="#35E214"/>
<path d="M2129.84 1319.32L2056.3 1349.62L2129.84 1381.18L2091.54 1446L2026.55 1393.18L2038.51 1477.13H1961.91L1973.95 1393.18L1908.88 1446L1870.58 1381.18L1944.19 1349.62L1870.58 1319.32L1908.88 1251.56L1973.95 1305.51L1958.96 1222.1H2038.51L2026.55 1305.51L2091.54 1251.56L2129.84 1319.32Z" fill="#35E214"/>
<path d="M1872.97 1683.01L1946.5 1652.71L1872.97 1621.15L1911.27 1556.33L1976.26 1609.15L1964.3 1525.19H2040.9L2028.86 1609.15L2093.93 1556.33L2132.23 1621.15L2058.62 1652.71L2132.23 1683.01L2093.93 1750.77L2028.86 1696.82L2043.85 1780.23H1964.3L1976.26 1696.82L1911.27 1750.77L1872.97 1683.01Z" fill="#35E214"/>
<path d="M1872.97 1986.11L1946.5 1955.81L1872.97 1924.24L1911.27 1859.43L1976.26 1912.24L1964.3 1828.29H2040.9L2028.86 1912.24L2093.93 1859.43L2132.23 1924.24L2058.62 1955.81L2132.23 1986.11L2093.93 2053.87L2028.86 1999.91L2043.85 2083.33H1964.3L1976.26 1999.91L1911.27 2053.87L1872.97 1986.11Z" fill="#35E214"/>
<path d="M2035.01 2390.65L2004.71 2317.12L1973.14 2390.65L1908.33 2352.35L1961.14 2287.36L1877.19 2299.32V2222.72L1961.14 2234.76L1908.33 2169.69L1973.14 2131.39L2004.71 2205L2035.01 2131.39L2102.77 2169.69L2048.81 2234.76L2132.23 2219.77V2299.32L2048.81 2287.36L2102.77 2352.35L2035.01 2390.65Z" fill="#35E214"/>
<path d="M1872.97 2596.52L1946.5 2566.22L1872.97 2534.66L1911.27 2469.84L1976.26 2522.66L1964.3 2438.7H2040.9L2028.86 2522.66L2093.93 2469.84L2132.23 2534.66L2058.62 2566.22L2132.23 2596.52L2093.93 2664.28L2028.86 2610.32L2043.85 2693.74H1964.3L1976.26 2610.32L1911.27 2664.28L1872.97 2596.52Z" fill="#35E214"/>
<path d="M2129.84 2839.02L2056.3 2869.32L2129.84 2900.89L2091.54 2965.71L2026.55 2912.89L2038.51 2996.84H1961.91L1973.95 2912.89L1908.88 2965.71L1870.58 2900.89L1944.19 2869.32L1870.58 2839.02L1908.88 2771.26L1973.95 2825.22L1958.96 2741.8H2038.51L2026.55 2825.22L2091.54 2771.26L2129.84 2839.02Z" fill="#35E214"/>
<path d="M2298.87 0.000852441L2329.17 73.5324L2360.74 0.000852441L2425.55 38.3L2372.74 103.287L2456.69 91.3297V167.928L2372.74 155.889L2425.55 220.958L2360.74 259.257L2329.17 185.644L2298.87 259.257L2231.11 220.958L2285.07 155.889L2201.65 170.874V91.3297L2285.07 103.287L2231.11 38.3L2298.87 0.000852441Z" fill="#35E214"/>
<path d="M2204.04 465.134L2277.57 434.835L2204.04 403.266L2242.34 338.452L2307.33 391.265L2295.37 307.315H2371.97L2359.93 391.265L2425 338.452L2463.3 403.266L2389.68 434.835L2463.3 465.134L2425 532.894L2359.93 478.935L2374.91 562.354H2295.37L2307.33 478.935L2242.34 532.894L2204.04 465.134Z" fill="#35E214"/>
<path d="M2360.73 869.669L2330.44 796.138L2298.87 869.669L2234.05 831.37L2286.87 766.383L2202.92 778.34V701.742L2286.87 713.781L2234.05 648.712L2298.87 610.413L2330.44 684.026L2360.73 610.413L2428.49 648.712L2374.54 713.781L2457.96 698.796V778.34L2374.54 766.383L2428.49 831.37L2360.73 869.669Z" fill="#35E214"/>
<path d="M2360.73 1176.98L2330.44 1103.45L2298.87 1176.98L2234.05 1138.68L2286.87 1073.7L2202.92 1085.65V1009.06L2286.87 1021.09L2234.05 956.026L2298.87 917.727L2330.44 991.34L2360.73 917.727L2428.49 956.026L2374.54 1021.09L2457.96 1006.11V1085.65L2374.54 1073.7L2428.49 1138.68L2360.73 1176.98Z" fill="#35E214"/>
<path d="M2360.73 1484.3L2330.44 1410.77L2298.87 1484.3L2234.05 1446L2286.87 1381.01L2202.92 1392.97V1316.37L2286.87 1328.41L2234.05 1263.34L2298.87 1225.04L2330.44 1298.66L2360.73 1225.04L2428.49 1263.34L2374.54 1328.41L2457.96 1313.42V1392.97L2374.54 1381.01L2428.49 1446L2360.73 1484.3Z" fill="#35E214"/>
<path d="M2360.73 1791.61L2330.44 1718.08L2298.87 1791.61L2234.05 1753.31L2286.87 1688.33L2202.92 1700.28V1623.69L2286.87 1635.72L2234.05 1570.66L2298.87 1532.36L2330.44 1605.97L2360.73 1532.36L2428.49 1570.66L2374.54 1635.72L2457.96 1620.74V1700.28L2374.54 1688.33L2428.49 1753.31L2360.73 1791.61Z" fill="#35E214"/>
<path d="M2298.87 1839.67L2329.17 1913.2L2360.74 1839.67L2425.55 1877.97L2372.74 1942.96L2456.69 1931V2007.6L2372.74 1995.56L2425.55 2060.63L2360.74 2098.93L2329.17 2025.31L2298.87 2098.93L2231.11 2060.63L2285.07 1995.56L2201.65 2010.55V1931L2285.07 1942.96L2231.11 1877.97L2298.87 1839.67Z" fill="#35E214"/>
<path d="M2460.9 2244.21L2387.37 2274.5L2460.9 2306.07L2422.6 2370.89L2357.62 2318.07L2369.57 2402.02H2292.98L2305.01 2318.07L2239.95 2370.89L2201.65 2306.07L2275.26 2274.5L2201.65 2244.21L2239.95 2176.45L2305.01 2230.4L2290.03 2146.98H2369.57L2357.62 2230.4L2422.6 2176.45L2460.9 2244.21Z" fill="#35E214"/>
<path d="M2360.73 2709.34L2330.44 2635.81L2298.87 2709.34L2234.05 2671.04L2286.87 2606.05L2202.92 2618.01V2541.41L2286.87 2553.45L2234.05 2488.38L2298.87 2450.08L2330.44 2523.7L2360.73 2450.08L2428.49 2488.38L2374.54 2553.45L2457.96 2538.47V2618.01L2374.54 2606.05L2428.49 2671.04L2360.73 2709.34Z" fill="#35E214"/>
<path d="M2204.04 2915.22L2277.57 2884.92L2204.04 2853.35L2242.34 2788.53L2307.33 2841.35L2295.37 2757.4H2371.97L2359.93 2841.35L2425 2788.53L2463.3 2853.35L2389.68 2884.92L2463.3 2915.22L2425 2982.98L2359.93 2929.02L2374.91 3012.44H2295.37L2307.33 2929.02L2242.34 2982.98L2204.04 2915.22Z" fill="#35E214"/>
<path d="M2635.27 0.000852441L2665.57 73.5324L2697.14 0.000852441L2761.96 38.3L2709.14 103.287L2793.09 91.3297V167.928L2709.14 155.889L2761.96 220.958L2697.14 259.257L2665.57 185.644L2635.27 259.257L2567.51 220.958L2621.47 155.889L2538.05 170.874V91.3297L2621.47 103.287L2567.51 38.3L2635.27 0.000852441Z" fill="#35E214"/>
<path d="M2697.14 566.57L2666.84 493.039L2635.27 566.57L2570.46 528.271L2623.27 463.284L2539.32 475.242V398.643L2623.27 410.682L2570.46 345.614L2635.27 307.314L2666.84 380.928L2697.14 307.314L2764.9 345.614L2710.94 410.682L2794.36 395.697V475.242L2710.94 463.284L2764.9 528.271L2697.14 566.57Z" fill="#35E214"/>
<path d="M2791.97 711.849L2718.44 742.148L2791.97 773.717L2753.67 838.531L2688.68 785.717L2700.64 869.668H2624.04L2636.08 785.717L2571.01 838.531L2532.71 773.717L2606.33 742.148L2532.71 711.849L2571.01 644.089L2636.08 698.048L2621.09 614.628H2700.64L2688.68 698.048L2753.67 644.089L2791.97 711.849Z" fill="#35E214"/>
<path d="M2791.97 1014.95L2718.44 1045.25L2791.97 1076.82L2753.67 1141.63L2688.68 1088.82L2700.64 1172.77H2624.04L2636.08 1088.82L2571.01 1141.63L2532.71 1076.82L2606.33 1045.25L2532.71 1014.95L2571.01 947.188L2636.08 1001.15L2621.09 917.727H2700.64L2688.68 1001.15L2753.67 947.188L2791.97 1014.95Z" fill="#35E214"/>
<path d="M2635.27 1220.83L2665.57 1294.36L2697.14 1220.83L2761.96 1259.12L2709.14 1324.11L2793.09 1312.15V1388.75L2709.14 1376.71L2761.96 1441.78L2697.14 1480.08L2665.57 1406.47L2635.27 1480.08L2567.51 1441.78L2621.47 1376.71L2538.05 1391.7V1312.15L2621.47 1324.11L2567.51 1259.12L2635.27 1220.83Z" fill="#35E214"/>
<path d="M2697.14 1787.4L2666.84 1713.86L2635.27 1787.4L2570.46 1749.1L2623.27 1684.11L2539.32 1696.07V1619.47L2623.27 1631.51L2570.46 1566.44L2635.27 1528.14L2666.84 1601.75L2697.14 1528.14L2764.9 1566.44L2710.94 1631.51L2794.36 1616.52V1696.07L2710.94 1684.11L2764.9 1749.1L2697.14 1787.4Z" fill="#35E214"/>
<path d="M2635.27 1835.45L2665.57 1908.99L2697.14 1835.45L2761.96 1873.75L2709.14 1938.74L2793.09 1926.78V2003.38L2709.14 1991.34L2761.96 2056.41L2697.14 2094.71L2665.57 2021.1L2635.27 2094.71L2567.51 2056.41L2621.47 1991.34L2538.05 2006.33V1926.78L2621.47 1938.74L2567.51 1873.75L2635.27 1835.45Z" fill="#35E214"/>
<path d="M2635.27 2142.77L2665.57 2216.3L2697.14 2142.77L2761.96 2181.07L2709.14 2246.06L2793.09 2234.1V2310.7L2709.14 2298.66L2761.96 2363.73L2697.14 2402.03L2665.57 2328.41L2635.27 2402.03L2567.51 2363.73L2621.47 2298.66L2538.05 2313.64V2234.1L2621.47 2246.06L2567.51 2181.07L2635.27 2142.77Z" fill="#35E214"/>
<path d="M2791.97 2547.3L2718.44 2577.6L2791.97 2609.17L2753.67 2673.99L2688.68 2621.17L2700.64 2705.12H2624.04L2636.08 2621.17L2571.01 2673.99L2532.71 2609.17L2606.33 2577.6L2532.71 2547.3L2571.01 2479.54L2636.08 2533.5L2621.09 2450.08H2700.64L2688.68 2533.5L2753.67 2479.54L2791.97 2547.3Z" fill="#35E214"/>
<path d="M2635.27 2753.18L2665.57 2826.71L2697.14 2753.18L2761.96 2791.48L2709.14 2856.47L2793.09 2844.51V2921.11L2709.14 2909.07L2761.96 2974.14L2697.14 3012.44L2665.57 2938.82L2635.27 3012.44L2567.51 2974.14L2621.47 2909.07L2538.05 2924.05V2844.51L2621.47 2856.47L2567.51 2791.48L2635.27 2753.18Z" fill="#35E214"/>
<path d="M3123.04 97.221L3049.51 127.52L3123.04 159.089L3084.74 223.903L3019.75 171.089L3031.71 255.04H2955.11L2967.15 171.089L2902.08 223.903L2863.78 159.089L2937.39 127.52L2863.78 97.221L2902.08 29.4609L2967.15 83.4192L2952.16 0H3031.71L3019.75 83.4192L3084.74 29.4609L3123.04 97.221Z" fill="#35E214"/>
<path d="M2866.17 460.918L2939.71 430.619L2866.17 399.05L2904.47 334.236L2969.46 387.05L2957.5 303.099H3034.1L3022.06 387.05L3087.13 334.236L3125.43 399.05L3051.82 430.619L3125.43 460.918L3087.13 528.678L3022.06 474.719L3037.05 558.139H2957.5L2969.46 474.719L2904.47 528.678L2866.17 460.918Z" fill="#35E214"/>
<path d="M3123.04 703.418L3049.51 733.717L3123.04 765.286L3084.74 830.1L3019.75 777.286L3031.71 861.237H2955.11L2967.15 777.286L2902.08 830.1L2863.78 765.286L2937.39 733.717L2863.78 703.418L2902.08 635.658L2967.15 689.616L2952.16 606.197H3031.71L3019.75 689.616L3084.74 635.658L3123.04 703.418Z" fill="#35E214"/>
<path d="M2866.17 1067.11L2939.71 1036.82L2866.17 1005.25L2904.47 940.433L2969.46 993.247L2957.5 909.296H3034.1L3022.06 993.247L3087.13 940.433L3125.43 1005.25L3051.82 1036.82L3125.43 1067.11L3087.13 1134.88L3022.06 1080.92L3037.05 1164.34H2957.5L2969.46 1080.92L2904.47 1134.88L2866.17 1067.11Z" fill="#35E214"/>
<path d="M2866.17 1370.21L2939.71 1339.91L2866.17 1308.34L2904.47 1243.53L2969.46 1296.34L2957.5 1212.39H3034.1L3022.06 1296.34L3087.13 1243.53L3125.43 1308.34L3051.82 1339.91L3125.43 1370.21L3087.13 1437.97L3022.06 1384.01L3037.05 1467.43H2957.5L2969.46 1384.01L2904.47 1437.97L2866.17 1370.21Z" fill="#35E214"/>
<path d="M3123.04 1612.71L3049.51 1643.01L3123.04 1674.58L3084.74 1739.39L3019.75 1686.58L3031.71 1770.53H2955.11L2967.15 1686.58L2902.08 1739.39L2863.78 1674.58L2937.39 1643.01L2863.78 1612.71L2902.08 1544.95L2967.15 1598.91L2952.16 1515.49H3031.71L3019.75 1598.91L3084.74 1544.95L3123.04 1612.71Z" fill="#35E214"/>
<path d="M3022.87 2077.85L2992.57 2004.31L2961 2077.85L2896.19 2039.55L2949 1974.56L2865.05 1986.52V1909.92L2949 1921.96L2896.19 1856.89L2961 1818.59L2992.57 1892.2L3022.87 1818.59L3090.63 1856.89L3036.67 1921.96L3120.09 1906.97V1986.52L3036.67 1974.56L3090.63 2039.55L3022.87 2077.85Z" fill="#35E214"/>
<path d="M2961 2125.9L2991.3 2199.44L3022.87 2125.9L3087.68 2164.2L3034.87 2229.19L3118.82 2217.23V2293.83L3034.87 2281.79L3087.68 2346.86L3022.87 2385.16L2991.3 2311.55L2961 2385.16L2893.24 2346.86L2947.2 2281.79L2863.78 2296.78V2217.23L2947.2 2229.19L2893.24 2164.2L2961 2125.9Z" fill="#35E214"/>
<path d="M3022.87 2692.47L2992.57 2618.94L2961 2692.47L2896.19 2654.18L2949 2589.19L2865.05 2601.15V2524.55L2949 2536.59L2896.19 2471.52L2961 2433.22L2992.57 2506.83L3022.87 2433.22L3090.63 2471.52L3036.67 2536.59L3120.09 2521.6V2601.15L3036.67 2589.19L3090.63 2654.18L3022.87 2692.47Z" fill="#35E214"/>
<path d="M2961 2740.53L2991.3 2814.06L3022.87 2740.53L3087.68 2778.83L3034.87 2843.82L3118.82 2831.86V2908.46L3034.87 2896.42L3087.68 2961.49L3022.87 2999.79L2991.3 2926.18L2961 2999.79L2893.24 2961.49L2947.2 2896.42L2863.78 2911.41V2831.86L2947.2 2843.82L2893.24 2778.83L2961 2740.53Z" fill="#35E214"/>
</svg>
